<svg width="200" height="200" viewBox="0 0 200 200" fill="none" xmlns="http://www.w3.org/2000/svg">
<path d="M74.9072 46.771C76.3024 45.9954 77.9024 45.5905 79.5024 45.6295C86.3268 45.6783 93.156 45.5905 99.9853 45.6686C103.497 45.6881 106.044 48.3759 108.273 50.7515C109.19 51.849 110.639 52.6344 111.078 54.049C110.376 55.0978 109.41 55.9222 108.6 56.8832C104.634 61.4978 102.068 67.1125 100.015 72.7905C92.2731 70.4539 83.7512 70.4393 76.1755 73.3856C72.6292 74.9905 69.0341 76.6734 66.0829 79.2588C59.0146 84.9661 54.1609 93.4295 52.9609 102.449C52.6487 107.278 52.4633 112.273 53.9902 116.937C55.5902 123.049 59.0048 128.654 63.5902 132.995C68.9414 138.742 76.4926 141.986 84.156 143.191C92.0097 144.439 100.054 142.376 106.985 138.673C112.468 135.332 117.346 130.708 120.332 124.966C122.185 125.347 123.815 126.342 125.483 127.19C132.815 130.625 141.122 131.556 149.122 130.639C151.571 130.342 153.922 129.469 156.395 129.303C156.273 134.181 157.029 139.405 154.576 143.873C151.371 149.83 145.029 154.488 138.078 154.347C106.195 154.366 74.317 154.342 42.439 154.356C39.317 154.322 36.0926 154.605 33.1024 153.532C29.5512 152.156 26.0585 150.142 23.8536 146.951C21.3512 143.556 19.8926 139.376 19.9414 135.147C19.9268 118.391 19.9316 101.634 19.9365 84.8783C19.9804 81.8588 20.0048 78.7027 21.4341 75.9564C23.6243 70.7808 28.0341 66.4344 33.6146 65.1807C41.6146 63.4929 49.639 61.932 57.6341 60.2295C60.2048 59.9954 62.5658 58.771 64.6048 57.249C66.5512 55.4588 68.117 53.3076 70.0097 51.4637C71.6585 49.9173 72.8633 47.8539 74.9072 46.771Z" fill="#656565" fill-opacity="0.71"/>
<path d="M137.332 49.6635C148.902 47.7464 161.468 51.5806 169.532 60.205C172.62 63.1708 175.127 66.7562 176.707 70.7416C178.668 75.0245 180.137 79.6245 179.922 84.3903C180.668 95.322 175.473 106.068 167.512 113.361C160.859 118.995 152.166 122.346 143.415 122.166C136.693 122.234 130.015 120.22 124.288 116.746C115.044 110.976 108.093 101.015 107.22 90.005C106.956 84.9367 106.81 79.6733 108.629 74.8489C111.39 66.3172 117.229 58.722 125.059 54.2684C128.824 51.9708 133.063 50.644 137.332 49.6635ZM138.342 67.5367C138.429 71.9318 138.381 76.3269 138.356 80.722C134.063 80.6781 129.771 80.7757 125.483 80.6879C125.463 84.0879 125.4 87.4879 125.522 90.8879C129.8 90.7562 134.083 90.8196 138.366 90.8537C138.376 95.1318 138.429 99.4196 138.346 103.698C141.756 103.8 145.166 103.742 148.576 103.727C148.542 99.4001 148.507 95.0733 148.61 90.7464C152.971 90.4928 157.342 90.7172 161.707 90.5854C161.61 87.3074 161.688 84.0294 161.668 80.7562C157.302 80.6635 152.942 80.7659 148.581 80.6928C148.532 76.3025 148.542 71.9074 148.566 67.5172C145.156 67.5367 141.746 67.5172 138.342 67.5367Z" fill="#656565" fill-opacity="0.71"/>
<path d="M85.9804 83.7763C90.034 83.1714 94.2145 83.8982 97.9657 85.4934C98.634 87.347 98.1462 89.4495 98.5267 91.3909C99.6145 99.2056 102.683 106.781 107.434 113.093C108.332 114.401 109.693 115.332 110.522 116.684C110.356 117.962 109.463 119.01 108.844 120.103C105.61 125.22 100.336 128.908 94.5072 130.44C88.6535 131.581 82.2486 131.118 77.1413 127.806C71.2047 124.63 66.9804 118.693 65.5852 112.147C64.4974 106.435 65.473 100.371 68.4145 95.3421C70.1218 92.4202 72.6145 90.0641 75.1755 87.8934C78.2438 85.4056 82.2145 84.586 85.9804 83.7763Z" fill="#656565" fill-opacity="0.71"/>
</svg>
