<svg width="30" height="22" viewBox="0 0 30 22" fill="none" xmlns="http://www.w3.org/2000/svg">
<g clip-path="url(#clip0_2_266)">
<path d="M23.9668 0.379723C24.4314 0.164858 24.9558 0.179723 25.4509 0.235128C25.9566 0.424317 26.3296 0.882425 26.5102 1.38918C27.3743 3.78783 28.2584 6.17837 29.1159 8.57972C29.3934 9.29999 29.7903 10.0311 29.6827 10.8324C29.6854 11.4608 29.173 11.9338 28.6274 12.127C27.8602 12.4189 27.1142 12.773 26.3257 13.0027C25.7695 13.15 25.2 12.9189 24.8177 12.504C24.8708 13.6811 23.7863 14.7 22.6341 14.5189C22.5385 15.3081 22.0858 16.0324 21.3916 16.4054C20.9522 16.6149 20.4571 16.5351 19.9898 16.5378C19.9832 17.6716 19.042 18.5419 17.9973 18.7392C17.9894 19.5892 17.4451 20.3824 16.6819 20.7094C16.1655 20.7905 15.6345 20.7392 15.142 20.5594C14.7398 20.9919 14.3376 21.5743 13.6885 21.5811C12.6956 21.75 11.7305 21.0338 11.4133 20.0959C11.0204 20.2446 10.5903 20.2122 10.1827 20.1716C9.59336 20.023 9.16195 19.5662 8.80487 19.0946C8.3177 19.273 7.78009 19.3081 7.27567 19.1946C6.78717 19.0959 6.46726 18.677 6.14071 18.3311C5.76106 17.9338 5.76505 17.3405 5.78628 16.823C5.11328 16.8946 4.52124 16.4459 4.11106 15.9486C3.74469 15.4878 3.76859 14.8797 3.7885 14.3216C3.76593 13.8067 4.13628 13.4027 4.4031 13.004C3.93053 13.3162 3.31991 13.1716 2.82212 12.9919C2.26328 12.7824 1.69248 12.604 1.1177 12.4459C0.670355 12.327 0.394248 11.9216 0.0796467 11.6108C0.034514 11.0865 -0.0371675 10.5446 0.11947 10.0324C0.26947 9.52972 0.459293 9.03918 0.609293 8.53648C1.13363 6.61756 1.85708 4.76215 2.39336 2.84729C2.54867 2.3027 2.75841 1.77567 2.89381 1.22567C3.18319 0.89729 3.46062 0.514858 3.88805 0.368912C4.42168 0.29729 4.9739 0.331074 5.47434 0.544588C6.11018 0.795939 6.78982 0.936479 7.40443 1.24188C7.81062 1.42161 7.9739 1.86216 8.14115 2.24459C8.71328 2.27972 9.27212 2.1608 9.83496 2.08107C9.88274 2.0581 9.97965 2.0108 10.0274 1.98783C10.5358 1.94188 11.035 1.80134 11.5487 1.82567C12.5296 1.79459 13.4881 2.11891 14.3217 2.62837C15.1726 2.13243 16.1403 1.78243 17.1319 1.83107C18.5695 1.92026 19.8093 2.73243 21.1779 3.09053C21.0889 2.36486 21.3212 1.54324 21.9823 1.16756C22.6274 0.863507 23.315 0.664858 23.9668 0.379723ZM22.4509 2.38107C22.4881 2.60134 22.5199 2.82161 22.585 3.03513C23.6071 5.93918 24.7155 8.8108 25.7363 11.7149C26.7093 11.6486 27.5668 11.0878 28.4881 10.8013C28.4655 10.6 28.4403 10.3959 28.3633 10.2067C27.4089 7.54053 26.4133 4.89053 25.4628 2.22297C25.354 1.92026 25.2584 1.57972 24.9743 1.39729C24.1221 1.69324 23.2766 2.01621 22.4509 2.38107ZM4.07257 1.72297C3.8854 2.35945 3.66239 2.98378 3.47389 3.61891C3.03186 5.22567 2.42124 6.77837 1.98186 8.38513C1.7562 9.11486 1.52788 9.84324 1.26106 10.5567C1.25708 10.7405 1.25443 10.9257 1.2531 11.1108C2.0854 11.3757 2.91505 11.6527 3.7354 11.9554C3.80708 11.9095 3.95177 11.8189 4.02478 11.7743C4.06593 11.6378 4.10841 11.5013 4.15221 11.3662C4.9354 8.97161 5.69204 6.57026 6.42213 4.1581C6.60398 3.57837 6.87345 3.01486 6.87611 2.39324C6.08496 2.08513 5.26195 1.86891 4.48009 1.53648C4.34469 1.59864 4.20797 1.6608 4.07257 1.72297ZM7.93407 3.57972C7.40575 5.47297 6.74735 7.32567 6.15398 9.19864C5.91372 9.84053 5.81947 10.5297 5.56726 11.1689C6.1208 10.8067 6.80443 10.8459 7.42699 10.9243C8.10531 11.2662 8.61505 11.9081 8.85 12.6365C9.38363 12.6216 9.94779 12.7297 10.3712 13.0811C10.8332 13.4149 11.0575 13.9527 11.2367 14.4784C11.5885 14.4919 11.9403 14.5189 12.292 14.5405C12.7766 14.8297 13.1841 15.2257 13.4628 15.723C13.4655 15.8135 13.4708 15.9932 13.4735 16.0824C13.5252 15.9811 13.5757 15.8797 13.6274 15.7784C13.8558 15.7162 14.0987 15.5338 14.335 15.6689C15.0956 16.0027 15.7819 16.4838 16.5266 16.8486C17.0549 17.104 17.5898 17.5392 18.2124 17.3473C18.3916 17.1851 18.523 16.9797 18.665 16.7851C18.665 16.5838 18.6664 16.3824 18.669 16.1824C18.3717 15.677 17.7929 15.5067 17.331 15.2067C16.6274 14.773 15.8058 14.5311 15.2018 13.9405C15.2058 13.7527 15.2097 13.5635 15.2137 13.3743C15.3332 13.2581 15.4513 13.1419 15.5708 13.0243C15.8084 13.0527 16.054 13.0703 16.2677 13.1932C17.554 13.8311 18.7819 14.5851 20.0496 15.2594C20.5367 15.5446 21.0252 15.1176 21.3438 14.7716C21.3173 14.3878 21.3199 13.9122 20.9549 13.6838C19.6235 12.8946 18.227 12.2176 16.9168 11.3892C16.9314 11.0959 16.8212 10.7081 17.1 10.5081C17.4597 10.3108 17.8819 10.4932 18.2124 10.6703C19.415 11.3486 20.615 12.027 21.835 12.6716C22.2013 12.8622 22.5385 13.1824 22.9673 13.1946C23.3695 13.2676 23.5925 12.7811 23.5805 12.4378C23.6589 11.9027 23.2513 11.4851 22.8677 11.1932C21.2973 9.98242 19.4058 9.33107 17.7265 8.30675C17.396 8.07972 16.9712 8.15405 16.5996 8.19999C15.2615 8.5135 14.0217 9.31486 12.608 9.2554C11.4969 9.30675 10.5385 8.55675 9.89867 7.69729C9.88142 7.46756 9.82168 7.22972 9.89469 7.0054C10.3447 6.21621 11.0336 5.61756 11.6535 4.97432C12.1553 4.47161 12.6358 3.94729 13.1602 3.46891C12.8841 3.38107 12.608 3.29053 12.3372 3.18513C10.8438 2.9054 9.41814 3.62567 7.93407 3.57972ZM14.3044 4.17837C13.1615 5.1108 12.1102 6.1608 11.185 7.31756C11.8089 7.91351 12.7128 8.21891 13.5385 7.88648C14.5327 7.61756 15.4434 7.04324 16.4788 6.94729C16.5252 6.91621 16.6208 6.85405 16.6673 6.82161C17.1637 6.82161 17.6801 6.83648 18.1327 7.06891C20.0336 8.20405 22.1496 8.97297 23.8938 10.373C23.1504 8.33107 22.4071 6.29053 21.6796 4.24324C21.1832 4.24324 20.6695 4.30405 20.1956 4.11756C19.3367 3.82432 18.4965 3.47837 17.6403 3.17567C17.1611 3.1608 16.6832 3.16215 16.204 3.17026C15.5416 3.44053 14.8726 3.72837 14.3044 4.17837ZM6.07036 12.3932C5.76505 13.2054 5.16903 13.8811 4.96328 14.7297C4.98982 15.2216 5.43186 15.4878 5.84602 15.6189C6.11814 15.4838 6.45797 15.3946 6.58142 15.0784C6.9146 14.373 7.36726 13.7284 7.62213 12.9851C7.57168 12.827 7.5239 12.6703 7.47611 12.5135C7.2969 12.3608 7.11637 12.2027 6.90797 12.0919C6.59867 12.0351 6.33982 12.2757 6.07036 12.3932ZM8.73452 14.0081C8.31106 14.2851 8.16239 14.804 7.9354 15.2338C7.70708 15.75 7.36726 16.2054 7.13894 16.7216C6.98894 17.1284 7.11505 17.5689 7.37522 17.8986C7.78009 18.0865 8.17832 18.0013 8.53009 17.7405C8.88186 16.9878 9.26682 16.2513 9.68894 15.5351C9.90797 15.1838 10.0115 14.7095 9.82566 14.3243C9.61195 13.9311 9.11549 13.8959 8.73452 14.0081ZM10.9898 15.9176C10.5146 16.4932 10.2558 17.2149 9.86947 17.85C9.84425 18.2284 9.91726 18.6716 10.3062 18.8324C10.5757 19.0676 10.8996 18.9203 11.1969 18.8419C11.5805 18.2946 11.8898 17.6986 12.1779 17.0946C12.3345 16.8108 12.2881 16.4743 12.3 16.1622C11.9881 15.7649 11.4013 15.527 10.9898 15.9176ZM12.5589 19.1081C12.3146 19.7946 13.2465 20.7365 13.8478 20.154C14.2566 19.6649 14.4372 19.027 14.708 18.4554C14.5115 18.1 14.1717 17.8932 13.804 17.7581C13.1389 17.9081 12.8283 18.5405 12.5589 19.1081ZM15.8496 17.8892C15.8788 18.3919 15.8482 18.8946 15.7354 19.3851C15.9903 19.4122 16.2478 19.4108 16.5053 19.4149C16.6381 19.1203 16.6805 18.8 16.6872 18.4797C16.4124 18.2757 16.1283 18.0851 15.8496 17.8892Z" fill="currentColor" fill-opacity="0.75"/>
</g>
<defs>
<clipPath id="clip0_2_266">
<rect width="30" height="21.8919" fill="white"/>
</clipPath>
</defs>
</svg>
