<svg width="30" height="30" viewBox="0 0 30 30" fill="none" xmlns="http://www.w3.org/2000/svg">
<path d="M22.8615 2.71171C23.8166 2.28632 24.8525 2.04725 25.8967 1.99628C26.4463 1.98866 26.9965 1.991 27.5461 1.99393C27.8227 1.9869 27.9967 2.27284 27.9973 2.52303C28.002 4.86034 27.9955 7.19823 28.0002 9.53612C28.3611 9.63104 28.7186 9.76464 29.0109 10.0037C29.6068 10.4408 29.9408 11.1609 30 11.8869V12.0316C29.976 12.5115 29.8359 12.9902 29.56 13.3869C29.2025 13.9254 28.6254 14.2922 28.0002 14.4351C27.9955 16.773 28.0025 19.1109 27.9967 21.4482C28.0137 21.7353 27.7734 22.0014 27.4805 21.9885C26.4228 22.0049 25.3494 22.0084 24.3164 21.7488C23.2078 21.5039 22.2064 20.9525 21.1846 20.4791C19.8311 19.8398 18.4811 19.193 17.1258 18.5584C15.5221 17.8142 13.7484 17.4562 11.983 17.4885C11.9795 18.651 11.9883 19.814 11.9789 20.9765C11.9871 21.2314 11.7797 21.4676 11.5236 21.4828C11.1539 21.5051 10.7824 21.484 10.4121 21.4916C10.5633 23.1012 10.7203 24.7096 10.8697 26.3185C10.9248 26.809 10.7291 27.3193 10.3494 27.6363C10.0676 27.8836 9.6914 27.9996 9.32051 27.9978C8.42109 28.0008 7.52168 27.9978 6.62226 27.999C6.31113 28.0043 5.99121 27.9515 5.72109 27.7887C5.24472 27.518 4.95703 26.9713 4.97754 26.4264C4.97636 23.4387 4.97695 20.451 4.97695 17.4633C4.18711 17.3754 3.41074 17.1381 2.72578 16.7308C1.48476 16.0101 0.549607 14.7838 0.186911 13.3951C-0.1043 12.3211 -0.0392606 11.1609 0.336325 10.1156C0.730075 8.99413 1.51113 8.01503 2.51133 7.37518C3.40957 6.77635 4.49062 6.48456 5.56582 6.48104C7.51816 6.4746 9.47109 6.47987 11.424 6.47811C12.4365 6.48807 13.4561 6.46522 14.4504 6.25839C15.5309 6.05389 16.5762 5.68827 17.5629 5.20604C18.7846 4.62948 20.0057 4.05233 21.225 3.4705C21.7746 3.22675 22.3043 2.94022 22.8615 2.71171ZM25.9957 2.99178C25.9957 8.98593 25.9957 14.9806 25.9957 20.9748C26.3285 20.9994 26.6625 20.9883 26.9965 20.9918C26.9977 14.9859 26.9977 8.97948 26.9965 2.97362C26.6625 2.97596 26.3285 2.96425 25.9957 2.99178ZM23.3754 3.56776C21.7459 4.31073 20.1375 5.09999 18.5133 5.85468C17.5037 6.36034 16.4555 6.80272 15.3574 7.0746C14.2559 7.36053 13.1174 7.46835 11.983 7.47948C11.9824 10.4818 11.9824 13.4842 11.983 16.4859C13.9283 16.4683 15.883 16.8633 17.6437 17.6988C19.2885 18.4699 20.9262 19.2574 22.5709 20.0291C23.3361 20.414 24.1441 20.7369 24.9955 20.8658C24.9955 14.9437 24.9955 9.02167 24.9955 3.09901C24.4418 3.19686 23.8963 3.35389 23.3754 3.56776ZM1.45605 9.95682C1.02949 10.7724 0.895896 11.7228 1.01894 12.6305C1.1455 13.5305 1.56035 14.3865 2.18027 15.0504C2.7709 15.6908 3.55312 16.1473 4.39746 16.3588C4.87558 16.4842 5.37363 16.4883 5.86465 16.4865C7.5709 16.4865 9.27656 16.4871 10.9822 16.4865C10.9828 13.4836 10.9828 10.4812 10.9822 7.47831C9.11953 7.48124 7.25683 7.47186 5.39414 7.483C3.75527 7.48417 2.17676 8.48964 1.45605 9.95682ZM28.0002 10.5685C27.9978 11.5125 27.9984 12.4558 28.0002 13.3992C28.5943 13.1889 29.0203 12.5842 28.9969 11.9508C28.9916 11.3414 28.5744 10.7689 28.0002 10.5685ZM5.98125 17.4855C5.9707 20.4668 5.97832 23.4486 5.97773 26.4299C5.95429 26.7094 6.17051 26.9894 6.46054 26.9918C7.37226 27.0053 8.28457 26.9918 9.19687 26.9982C9.38437 27.0017 9.59707 26.99 9.73242 26.8412C9.87597 26.7058 9.88652 26.4967 9.86484 26.3127C9.58066 23.3719 9.30761 20.4293 9.02402 17.4885C8.00976 17.4867 6.99551 17.4926 5.98125 17.4855ZM10.0312 17.4885C10.125 18.4892 10.2205 19.4906 10.3172 20.4914C10.5387 20.4908 10.7607 20.4914 10.9822 20.4914C10.9834 19.4912 10.9811 18.491 10.9834 17.4908C10.6658 17.4855 10.3488 17.4896 10.0312 17.4885Z" fill="currentColor" fill-opacity="0.75"/>
</svg>
