<svg width="30" height="30" viewBox="0 0 30 30" fill="none" xmlns="http://www.w3.org/2000/svg">
<path d="M1.89825 0.853615C2.89299 1.16773 4.10527 1.205 4.77018 2.12782C4.72457 2.22543 4.63159 2.42064 4.58597 2.51825C7.61054 5.56889 10.6579 8.5947 13.6807 11.6489C14.0193 11.3916 14.2684 10.8822 14.707 10.8343C15.5509 11.6205 16.3351 12.4741 17.1754 13.2656C17.479 12.9515 17.793 12.648 18.1386 12.3818C19.1369 13.4271 20.1263 14.4866 21.2176 15.436C23.1544 17.3846 25.0965 19.3296 27.0351 21.2782C27.579 21.9135 27.9825 22.7405 27.9018 23.603C27.9895 24.792 27.2421 25.942 26.2421 26.5188C25.2088 27.1488 23.8351 27.0867 22.814 26.4691C22.0105 25.7965 21.2526 25.0636 20.5526 24.2809C18.086 21.9579 15.7807 19.4645 13.3281 17.1255C13.6526 16.8132 13.9895 16.5097 14.2719 16.1565C13.4825 15.2532 12.5369 14.4937 11.7667 13.5709C12.0509 13.2638 12.3597 12.9834 12.6649 12.6995C11.0983 11.1129 9.52457 9.53349 7.94211 7.96114C6.54387 6.43671 4.96843 5.09861 3.54913 3.59369C3.4351 3.63274 3.20527 3.71082 3.09124 3.74987C2.89124 3.53691 2.68948 3.32572 2.48422 3.11809C2.25615 2.37273 2.01229 1.62737 1.89825 0.853615Z" fill="currentColor" fill-opacity="0.75"/>
<path d="M20.2246 3.9433C20.8702 2.2414 22.6474 1.23694 24.3965 1.16241C25.0035 1.23872 25.607 1.33987 26.1965 1.50847C25.9404 1.88292 25.5965 2.17929 25.2667 2.48453C24.3878 3.33637 23.5597 4.24145 22.6807 5.09151C23.4649 5.98772 24.4211 6.70468 25.2316 7.57427C26.4299 6.42073 27.5737 5.21219 28.7509 4.03736C29.2825 5.40918 29.1842 7.00992 28.3913 8.25929C27.3211 10.0783 24.9193 10.9248 22.9562 10.2079C21.9299 11.2194 20.9299 12.2612 19.8983 13.2674C19.8369 13.2745 19.7141 13.2922 19.6527 13.2993C19.1053 12.829 18.6386 12.2736 18.1193 11.7713C17.8141 12.0517 17.5316 12.3605 17.2018 12.6143C16.6825 12.3552 16.3158 11.8867 15.9281 11.4661C17.1018 10.3552 18.193 9.15726 19.3685 8.04987C19.6 7.82094 19.8439 7.60088 20.0316 7.33291C19.7685 6.22197 19.686 4.98858 20.2246 3.9433Z" fill="currentColor" fill-opacity="0.75"/>
<path d="M8.09474 19.2054C9.58773 17.8087 11.0088 16.3251 12.4632 14.8841C12.8825 15.31 13.3035 15.7359 13.7351 16.1512C13.407 16.4724 13.0842 16.7972 12.7702 17.1308C13.3491 17.6402 13.8561 18.2276 14.4298 18.744C13.3667 19.9508 12.1737 21.0369 11.0456 22.1815C11.6105 23.8444 11.1386 25.8213 9.86141 27.021C8.58597 28.3289 6.51931 28.6697 4.8579 27.9669C6.03685 26.7797 7.26317 25.6297 8.40001 24.3945C7.62457 23.5019 6.67896 22.7885 5.87018 21.9277C4.69299 23.099 3.56667 24.3253 2.3386 25.4433C1.72281 23.9526 1.92983 22.1336 2.91755 20.8523C4.07369 19.2551 6.24562 18.6286 8.09474 19.2054Z" fill="currentColor" fill-opacity="0.75"/>
</svg>
