<svg width="29" height="30" viewBox="0 0 29 30" fill="none" xmlns="http://www.w3.org/2000/svg">
<g clip-path="url(#clip0_2_288)">
<path d="M11.1945 1.268C12.9036 0.495534 14.9403 0.353428 16.7596 0.880554C19.4998 1.61173 21.6721 3.79432 22.2414 6.32064C22.3877 7.234 22.4293 8.15464 22.4293 9.07772C23.1181 9.34128 23.7222 9.8927 23.878 10.568C23.925 12.187 23.9585 13.8036 23.878 15.4227C23.8189 15.9704 23.196 16.3057 23.1812 16.8656C23.0603 17.751 22.7489 18.6741 21.9822 19.2802C21.178 20.0514 19.9939 20.304 18.897 20.5433C18.7667 21.2854 19.5078 21.7615 20.0435 22.1939C22.1071 23.6138 24.4768 24.6182 26.8706 25.4903C27.3191 25.653 27.793 25.8461 28.0481 26.2409C28.565 26.8518 28.4106 27.6789 28.2575 28.3785C27.9608 28.9397 27.3217 29.4595 26.59 29.3963C19.1131 29.3854 11.6362 29.4 4.16067 29.3891C3.29067 29.3453 2.39785 29.4085 1.55067 29.202C0.931736 28.8097 0.559838 28.1368 0.676644 27.4494C0.559838 26.7109 1.00424 25.9579 1.76012 25.6567C3.59276 24.9729 5.416 24.2502 7.12646 23.338C8.11595 22.8073 9.11215 22.2352 9.86266 21.4348C10.2399 21.0729 10.2614 20.5312 10.1849 20.0672C9.98887 19.766 9.70558 19.5243 9.4572 19.2595C8.85438 18.5878 8.33613 17.847 8.00988 17.0308C7.41109 16.9797 6.74919 17.0502 6.23901 16.7004C5.66975 16.3154 5.08572 15.7579 5.13674 15.0668C5.14748 13.6093 5.13271 12.1518 5.14345 10.6943C5.271 9.97286 5.89664 9.40687 6.59345 9.08258C6.62433 8.11456 6.64581 7.14047 6.8566 6.18703C7.36947 4.05667 9.05979 2.23966 11.1945 1.268ZM13.3588 1.86557C11.7517 2.134 10.2319 2.93076 9.27864 4.1429C8.49053 5.09877 8.01391 6.28663 8.0609 7.48541C8.34956 7.12104 8.43951 6.66679 8.70266 6.28906C9.51896 5.00525 11.0441 4.19756 12.6257 3.92914C14.2556 3.74209 15.958 3.70444 17.5316 4.18906C18.5841 4.49999 19.4877 5.14614 20.1496 5.94047C20.5228 6.43481 20.7202 7.01294 21.033 7.53764C21.0344 5.45829 19.6918 3.43238 17.6457 2.47893C16.3447 1.84007 14.8088 1.67732 13.3588 1.86557ZM12.5814 5.1595C11.2872 5.34412 10.0949 6.13481 9.61428 7.251C9.10276 8.20809 9.25581 9.29634 9.19808 10.3251C9.22896 12.3826 9.11887 14.4474 9.26387 16.5012C9.64651 17.6733 10.5675 18.6243 11.4953 19.4818C11.51 20.0951 11.5852 20.7182 11.4697 21.3255C11.0643 22.2947 10.0828 22.9129 9.20748 23.5178C7.11303 24.849 4.79572 25.8644 2.43007 26.7328C1.81785 26.898 2.01655 27.6036 2.02192 28.0385C2.61535 28.2097 3.27322 28.1648 3.89484 28.1818C11.1005 28.1963 18.3062 28.1963 25.5119 28.1806C26.0127 28.183 26.5095 28.1198 27.0062 28.081C27.0438 27.6765 27.0331 27.2684 26.9847 26.8652C24.2311 25.8401 21.4627 24.7312 19.1266 23.0283C18.3814 22.4077 17.4577 21.7178 17.4872 20.7109C17.1274 20.7134 16.769 20.7304 16.4118 20.7607C15.9929 21.2611 15.4076 21.8113 14.6463 21.7263C13.9347 21.6012 13.2782 21.1506 13.0661 20.5093C12.7841 19.5352 13.8153 18.4834 14.9108 18.5818C15.5512 18.583 16.0144 19.0591 16.3917 19.4696C16.7837 19.4745 17.1825 19.5219 17.5691 19.4502C18.3237 18.7712 19.0554 18.0437 19.5307 17.1729C19.677 16.8887 19.9039 16.6129 19.873 16.2826C19.861 14.6587 19.8865 13.0348 19.8596 11.4121C19.7401 10.3117 19.8851 9.20161 19.7629 8.10242C19.5683 7.22428 19.097 6.33642 18.2633 5.81537C16.5864 4.84979 14.4758 4.87286 12.5814 5.1595ZM6.60016 10.4842C6.42831 10.8984 6.43234 11.3453 6.43771 11.7814C6.45919 13.0263 6.37058 14.281 6.59076 15.515C6.89285 15.8125 7.39095 15.7591 7.79641 15.8065C7.81387 13.9299 7.80715 12.0546 7.80044 10.1781C7.39632 10.2097 6.87808 10.1623 6.60016 10.4842ZM21.3042 10.1696C21.2854 12.0546 21.2854 13.9409 21.3029 15.8259C21.758 15.8113 22.2333 15.7299 22.5582 15.4178C22.5945 14.0441 22.5851 12.6704 22.5784 11.2967C22.5555 10.9761 22.6173 10.619 22.3904 10.3445C22.0427 10.2304 21.6708 10.1927 21.3042 10.1696ZM21.1351 17.0514C20.9887 17.1777 20.9337 17.3636 20.8397 17.5214C20.5766 18.0729 20.1711 18.5526 19.8516 19.0761C20.8719 18.8271 21.6815 17.9927 21.758 17.0308C21.5499 17.0344 21.3418 17.0308 21.1351 17.0514ZM14.4315 19.8607C14.3603 20.0587 14.4181 20.2676 14.4342 20.4692C14.6436 20.4668 14.8786 20.5397 15.0719 20.4401C15.2075 20.2773 15.1485 20.0465 15.1015 19.8644C14.8907 19.783 14.645 19.7988 14.4315 19.8607Z" fill="currentColor" fill-opacity="0.75"/>
</g>
<defs>
<clipPath id="clip0_2_288">
<rect width="29" height="30" fill="white"/>
</clipPath>
</defs>
</svg>
