<svg width="30" height="28" viewBox="0 0 30 28" fill="none" xmlns="http://www.w3.org/2000/svg">
<g clip-path="url(#clip0_2_277)">
<path d="M3.6841 3.74728C3.6841 1.8986 5.26067 0.158516 7.14979 0.131054C13.5966 0.124813 20.0435 0.124813 26.4904 0.131054C28.4096 0.169751 30.049 1.97849 29.9335 3.8746C29.9146 4.13674 29.6096 4.24534 29.3812 4.22162C27.3992 4.22162 25.4184 4.22038 23.4364 4.22038C23.4301 10.5953 23.4364 16.9714 23.4339 23.3463C23.3837 24.2176 23.0887 25.0926 22.5364 25.7767C21.9326 26.4845 21.0803 27.0087 20.1364 27.0874H3.07908C1.83891 26.97 0.714222 26.1574 0.166942 25.0564C0.0702891 24.3699 0.149369 23.6696 0.126774 22.9781C1.31046 22.9756 2.49414 22.9768 3.67782 22.9768C3.69037 16.567 3.67782 10.1571 3.6841 3.74728ZM5.85941 1.45671C5.0523 1.95976 4.56903 2.92093 4.60795 3.86212C4.61171 10.2333 4.60041 16.6044 4.61297 22.9756C8.56067 22.9781 12.5071 22.9743 16.4536 22.9781C16.849 22.9519 16.9695 23.4137 16.9443 23.727C17.0435 25.361 18.8761 26.6118 20.4414 26.1C21.3703 25.9003 22.1096 25.1376 22.3895 24.2488C22.5653 23.757 22.5176 23.2265 22.5238 22.7134C22.5238 16.3498 22.5251 9.98612 22.5276 3.62121C22.564 2.61635 23.0448 1.66268 23.7891 0.99111C18.3703 0.982372 12.9527 0.992358 7.53389 0.986117C6.94895 0.989862 6.35146 1.13591 5.85941 1.45671ZM25.3795 1.13716C24.359 1.40054 23.6925 2.32675 23.4339 3.3004C25.2326 3.34409 27.0339 3.30914 28.8339 3.31788C28.6808 1.74257 26.8895 0.546727 25.3795 1.13716ZM0.847277 23.8431C1.01422 24.7094 1.52385 25.5096 2.3046 25.9489C2.73891 26.085 3.18075 26.2398 3.64267 26.2248C8.19288 26.2211 12.7418 26.2248 17.2908 26.2236C16.6782 25.6581 16.2088 24.9204 16.072 24.0915C16.0807 23.8731 15.8799 23.8057 15.6967 23.8394C10.7473 23.8444 5.79665 23.8369 0.847277 23.8431Z" fill="currentColor" fill-opacity="0.75"/>
<path d="M9.32888 5.61219C9.34395 4.3452 10.5013 3.17308 11.7967 3.2642C12.9879 3.27544 14.1803 3.24049 15.3716 3.28417C15.4632 3.3753 15.5561 3.46767 15.649 3.55755C15.6929 3.88834 15.6942 4.36517 15.2849 4.45505C14.1201 4.51122 12.949 4.45006 11.7829 4.48126C11.2142 4.50373 10.6055 4.94312 10.613 5.54728C10.5904 6.73563 10.6067 7.92523 10.6042 9.11358C10.5778 9.58293 10.8465 10.0485 11.277 10.2483C11.6059 10.3494 11.9523 10.3943 12.2975 10.3856C13.2201 10.3768 14.1427 10.3856 15.0653 10.3818C15.5234 10.3656 16.0494 10.2345 16.2992 9.81386C16.5778 9.27086 16.436 8.64548 16.4774 8.06254C16.5163 7.99638 16.5954 7.86406 16.6343 7.79791C16.7008 7.75921 16.8326 7.68182 16.8992 7.64312C17.0674 7.64437 17.2356 7.64811 17.4038 7.64936C17.5444 7.81288 17.7214 7.97766 17.7452 8.20484C17.8042 9.06864 17.749 10.0311 17.169 10.7263C16.731 11.2144 16.1121 11.5839 15.4393 11.5889C14.1816 11.5926 12.9239 11.5914 11.6649 11.5889C10.4285 11.5914 9.35273 10.4692 9.33014 9.25463C9.32386 8.04007 9.32512 6.82675 9.32888 5.61219Z" fill="currentColor" fill-opacity="0.75"/>
<path d="M17.0523 4.47628C17.3975 4.18668 17.6686 3.64119 18.2021 3.75603C18.6025 3.78599 18.7217 4.21539 18.6853 4.55242C18.492 4.74965 18.3 4.95062 18.1167 5.15659C16.7598 6.43856 15.4606 7.77919 14.1276 9.08613C13.9029 9.07115 13.623 9.16727 13.4447 8.98751C12.9477 8.52066 12.4832 8.02011 11.9811 7.5595C11.7577 7.35353 11.4991 7.0527 11.6422 6.7294C11.6836 6.476 11.9334 6.37864 12.1267 6.26005C12.3226 6.30624 12.5385 6.33245 12.6866 6.48224C13.077 6.84799 13.4435 7.23745 13.8263 7.60943C14.9598 6.62829 15.9665 5.50985 17.0523 4.47628Z" fill="currentColor" fill-opacity="0.75"/>
<path d="M10.6205 13.8358C11.1703 13.5299 11.823 13.6448 12.4255 13.6211C13.1561 13.6448 13.8929 13.5711 14.6184 13.6598C14.9812 13.8121 14.9398 14.2215 14.926 14.5423C14.8255 14.6384 14.7251 14.7345 14.6247 14.8319C13.5992 14.8768 12.5711 14.8207 11.5456 14.8643C12.1808 15.6595 12.9678 16.3261 13.6833 17.0513C14.6762 16.0914 15.6364 15.099 16.6293 14.1403C16.8301 14.1366 17.031 14.1354 17.2318 14.1366C17.4063 14.365 17.5758 14.6059 17.5544 14.908C17.0473 15.5846 16.3393 16.0639 15.8134 16.7218C15.3979 17.1262 14.9071 17.462 14.5958 17.9625C15.1707 18.5455 15.7506 19.1247 16.3456 19.6901C16.3619 18.9562 16.3368 18.2209 16.3557 17.4869C16.3218 17.1562 16.6745 17.0151 16.9042 16.8703C17.2808 16.9127 17.6799 17.1587 17.6385 17.5893C17.6096 18.5018 17.7339 19.4305 17.518 20.3268C17.4075 20.7087 17.1665 21.032 16.9469 21.3566C16.4347 21.7286 15.8486 22.0706 15.1933 22.0556C14.0209 22.0569 12.8473 22.0544 11.6749 22.0569C11.4 22.0668 11.1339 21.9944 10.8703 21.927C9.91759 21.6362 9.21341 20.7262 9.19583 19.7338C9.18956 18.4806 9.19207 17.2261 9.19458 15.9728C9.1996 15.0641 9.79834 14.2127 10.6205 13.8358ZM10.4699 15.6483C10.4762 17.1736 10.4548 18.699 10.4812 20.2231C11.2582 19.4804 12.0151 18.7177 12.772 17.955C12.0226 17.1699 11.2331 16.4222 10.4699 15.6483ZM11.6975 20.7649C13.0255 20.7961 14.3561 20.7936 15.6854 20.7699C15.4343 20.5065 15.1745 20.2519 14.8971 20.0147C14.5506 19.5678 14.0724 19.2532 13.6858 18.8463C12.9929 19.4555 12.3565 20.122 11.6975 20.7649Z" fill="currentColor" fill-opacity="0.75"/>
<path d="M3.33136 24.7456C3.45186 24.5546 3.70165 24.6308 3.88868 24.6096C7.44224 24.6208 10.9971 24.6008 14.5494 24.6195C14.8481 24.6395 14.8117 24.9741 14.8167 25.1888C14.6586 25.2624 14.4916 25.3261 14.3121 25.3111C10.756 25.3048 7.19873 25.3148 3.6414 25.3061C3.33262 25.3685 3.1481 24.9628 3.33136 24.7456Z" fill="currentColor" fill-opacity="0.75"/>
</g>
<defs>
<clipPath id="clip0_2_277">
<rect width="30" height="27.0874" fill="white"/>
</clipPath>
</defs>
</svg>
