<svg width="30" height="30" viewBox="0 0 30 30" fill="none" xmlns="http://www.w3.org/2000/svg">
<path d="M11.742 3.08099C13.305 1.95899 15.324 2.10899 17.136 2.28599C18.969 2.72099 20.352 4.13699 21.36 5.65799C21.924 7.31699 21.87 9.11999 21.459 10.806C20.733 11.994 19.842 13.092 18.663 13.857C18.195 14.028 17.721 14.19 17.241 14.337L17.235 14.547C15.783 14.58 14.253 14.799 12.879 14.205C10.95 13.503 9.393 11.808 9.045 9.76199L8.826 9.75299C8.493 7.22099 9.441 4.39499 11.742 3.08099Z" fill="currentColor" fill-opacity="0.75"/>
<path d="M6.18602 18.465C7.55702 16.974 9.33302 16.014 11.139 15.159C11.832 15.396 12.519 15.657 13.2 15.927C14.265 16.239 15.372 16.365 16.482 16.278C17.343 15.921 18.339 15.822 19.056 15.177C19.524 15.297 19.989 15.432 20.451 15.573C22.74 16.524 24.618 18.258 25.815 20.421C26.472 22.119 26.865 23.997 26.43 25.797C25.878 26.997 24.534 27.468 23.418 27.993C22.107 28.215 20.829 28.683 19.482 28.671C16.089 28.719 12.687 28.77 9.29402 28.596C8.50802 28.365 7.71002 28.164 6.91502 27.969C6.49802 27.759 6.07802 27.558 5.65502 27.366C5.28002 27.087 4.89902 26.814 4.55702 26.493C4.33202 25.281 4.20602 24.033 4.39202 22.809C4.56902 21.252 5.50802 19.953 6.14102 18.561L6.18602 18.465Z" fill="currentColor" fill-opacity="0.75"/>
<path opacity="0.6" d="M3.93901 22.986C4.28401 21.363 4.88401 19.707 6.14101 18.561C5.50801 19.953 4.56901 21.252 4.39201 22.809C4.20601 24.033 4.33201 25.281 4.55701 26.493C3.66301 25.548 3.70501 24.177 3.93901 22.986Z" fill="currentColor" fill-opacity="0.75"/>
</svg>
