<svg width="30" height="26" viewBox="0 0 30 26" fill="none" xmlns="http://www.w3.org/2000/svg">
<path d="M0.935988 14.9677C5.76687 10.1368 10.5854 5.29049 15.4286 0.471985C20.2936 5.29977 25.1368 10.1461 29.9801 14.9956C30.7352 15.8528 30.5619 17.3104 29.5314 17.8644C28.5937 18.5298 27.4053 17.948 26.7956 17.1093C26.579 19.9317 26.7554 22.8191 26.709 25.6631C19.198 25.626 11.684 25.6384 4.17308 25.66C4.19475 22.8098 4.20094 19.9595 4.16999 17.1124C3.76148 17.2176 3.60984 17.6663 3.25395 17.8489C2.2822 18.5576 0.821482 17.9542 0.468682 16.8339C0.44083 16.1871 0.344893 15.4072 0.935988 14.9677ZM6.00826 15.1534C5.94327 18.0408 5.97731 20.9406 5.99279 23.8311C7.26473 23.8682 8.53666 23.8465 9.8086 23.8434C9.81479 21.3336 9.82098 18.8269 9.8055 16.317C11.0372 16.3263 12.272 16.3387 13.5068 16.3078C13.4975 17.4683 13.4913 18.6288 13.5099 19.7893C13.0055 19.7831 12.501 19.7553 11.9966 19.7924C11.9966 19.9967 11.9966 20.4083 11.9966 20.6125C12.501 20.6435 13.0055 20.6187 13.5099 20.6156C13.4975 21.6895 13.4882 22.7634 13.5068 23.8403C17.2917 23.8558 21.0765 23.8527 24.8614 23.8434C24.8707 20.9653 24.8614 18.0903 24.8676 15.2153C21.7481 12.037 18.5512 8.933 15.4472 5.74542C12.2596 8.83706 9.1587 12.0215 6.00826 15.1534Z" fill="currentColor" fill-opacity="0.75"/>
<path d="M17.2607 16.3697C18.5265 16.2799 19.8232 16.3232 21.0951 16.348C21.0766 17.5766 21.0766 18.8052 21.0951 20.0338C19.8201 19.9781 18.5451 20.0276 17.27 20.006C17.27 18.7928 17.2886 17.5797 17.2607 16.3697Z" fill="currentColor" fill-opacity="0.75"/>
</svg>
