<svg width="30" height="24" viewBox="0 0 30 24" fill="none" xmlns="http://www.w3.org/2000/svg">
<path d="M4.59827 0.383405C4.72384 0.394673 4.84511 0.351623 4.97011 0.353646C5.54539 0.356246 6.12068 0.35249 6.69597 0.355379C6.8293 0.374448 6.96292 0.392073 7.09855 0.382827C8.51493 0.490018 9.92212 0.775187 11.2641 1.24845C12.6385 1.71044 13.9414 2.36861 15.1675 3.14206C16.4733 2.29262 17.8908 1.61856 19.3701 1.13721C20.5506 0.759874 21.771 0.495797 23.0066 0.400741C23.158 0.365203 23.3152 0.401318 23.4669 0.367225C23.5175 0.357113 23.569 0.353935 23.621 0.353646C24.2149 0.354802 24.8092 0.354802 25.4032 0.353646C25.4537 0.353935 25.5052 0.357113 25.5557 0.367225C25.7069 0.401607 25.8641 0.365203 26.0158 0.400741C26.5813 0.444946 27.1445 0.530179 27.7 0.64806C27.7164 0.663662 27.733 0.679553 27.7503 0.695155C27.7419 0.86042 27.7871 1.02135 27.7848 1.18662C27.8175 1.34784 27.7997 1.51339 27.8336 1.67432C27.827 1.84276 27.8721 2.00658 27.8678 2.17474C28.0422 2.1756 28.2164 2.17329 28.3908 2.17445C28.4876 2.17387 28.581 2.20767 28.6782 2.20421C29.0408 2.20276 29.4037 2.2045 29.7664 2.20305C29.7839 2.22068 29.802 2.23859 29.8204 2.25621C29.819 2.75576 29.821 3.2556 29.8192 3.75516C29.8167 3.86263 29.854 3.96665 29.8494 4.07442C29.8471 5.09548 29.8503 6.11625 29.8477 7.13731C29.8385 7.28292 29.8894 7.42421 29.8782 7.57012C29.8767 10.6518 29.877 13.7337 29.8782 16.8154C29.8879 16.9422 29.8589 17.0659 29.8486 17.191C29.8477 18.7807 29.85 20.3706 29.8477 21.96C29.8066 22.1698 29.8241 22.3836 29.8184 22.5959C29.8256 22.6416 29.7761 22.6474 29.744 22.6442C27.9046 22.6439 26.0649 22.6439 24.2256 22.6439C24.1376 22.6445 24.0532 22.6739 23.9652 22.6731C18.1414 22.6725 12.3175 22.6731 6.49367 22.6728C6.28304 22.6699 6.07097 22.6869 5.86321 22.6456C4.10947 22.6416 2.35545 22.645 0.601427 22.6439C0.572404 22.6436 0.513783 22.643 0.525852 22.5962C0.522979 22.0363 0.52614 21.4766 0.52499 20.9167C0.523553 20.8292 0.494818 20.7448 0.495967 20.6572C0.497117 19.1262 0.494818 17.5952 0.497117 16.0642C0.506312 15.9466 0.470392 15.8331 0.467231 15.7169C0.467519 13.1648 0.467519 10.6131 0.467231 8.061C0.466657 7.96363 0.49999 7.86973 0.496829 7.77236C0.494818 6.71259 0.497404 5.65252 0.495392 4.59275C0.490795 4.48556 0.528151 4.3827 0.525565 4.2758C0.523841 3.69766 0.525852 3.11952 0.524415 2.54138C0.523841 2.42986 0.545967 2.31978 0.56522 2.21056C0.961484 2.19034 1.35947 2.21519 1.75602 2.19901C1.99252 2.15249 2.23476 2.18341 2.47413 2.17474C2.52614 2.02739 2.49597 1.8705 2.51608 1.71881C2.55114 1.56251 2.52269 1.40042 2.56062 1.2444C2.55516 1.05978 2.60545 0.879778 2.59396 0.695155C2.61091 0.679553 2.62815 0.663662 2.64539 0.64806C3.15717 0.542025 3.67413 0.458237 4.19482 0.413164C4.33045 0.415765 4.46206 0.371848 4.59827 0.383405ZM5.23131 2.06957C4.8816 2.07188 4.53447 2.12158 4.18763 2.1652C4.18763 3.52402 4.18763 4.88312 4.18792 6.24193C4.18821 6.33872 4.15488 6.43233 4.15832 6.5297C4.16034 7.37682 4.15775 8.22424 4.15976 9.07137C4.16235 9.19763 4.11924 9.32013 4.1293 9.44726C4.1316 10.7188 4.1293 11.9904 4.13045 13.2619C4.13016 13.3157 4.12327 13.3694 4.11436 13.4226C4.13821 13.541 4.12959 13.6627 4.13016 13.7826C4.12959 14.6589 4.13103 15.5349 4.12959 16.4109C4.12643 16.4988 4.15373 16.5837 4.15804 16.6712C4.16407 17.0373 4.15171 17.404 4.16321 17.7697C4.19654 17.924 4.18821 18.0821 4.18735 18.2389C4.48591 18.243 4.78534 18.2303 5.08361 18.2447C5.31235 18.2982 5.54942 18.2378 5.77844 18.2889C6.75861 18.3427 7.73189 18.5074 8.69309 18.7093C10.6192 19.1259 12.4853 19.778 14.3175 20.4995C14.3192 18.9725 14.3164 17.4453 14.319 15.9183C14.3615 15.6903 14.3437 15.458 14.3468 15.2272C14.3468 12.7901 14.3468 10.353 14.3465 7.91625C14.3394 7.8001 14.3077 7.68626 14.3172 7.56896C14.3198 6.67098 14.3158 5.773 14.3192 4.87503C13.8302 4.52196 13.302 4.22986 12.7761 3.93718C12.3968 3.74851 12.0224 3.54886 11.6307 3.3862C9.97959 2.65609 8.20459 2.20132 6.40574 2.07217C6.23189 2.0895 6.06292 2.0323 5.88936 2.04299C5.66982 2.0505 5.44798 2.0245 5.23131 2.06957ZM24.2253 2.10944C24.0678 2.14931 23.9043 2.11204 23.7465 2.14613C21.798 2.30678 19.8592 2.76934 18.0934 3.62543C17.8764 3.70402 17.6888 3.84125 17.4807 3.93833C17.1856 4.10042 16.8914 4.26511 16.6129 4.45551C16.4164 4.56501 16.2437 4.71063 16.0549 4.83255C16.0563 5.13824 16.0546 5.44392 16.0563 5.74989C16.0606 5.85708 16.0236 5.96023 16.0261 6.06713C16.0282 7.56954 16.0253 9.07195 16.0276 10.5741C16.0322 10.672 16.0006 10.7662 15.998 10.8633C15.9974 12.713 15.9988 14.5627 15.9974 16.4124C15.9942 16.5094 16.0276 16.6031 16.027 16.7004C16.027 17.9668 16.0261 19.2331 16.0273 20.4995C16.7399 20.2189 17.4569 19.9488 18.1822 19.7032C18.4704 19.5833 18.7747 19.5102 19.069 19.4076C19.6201 19.2285 20.1784 19.0725 20.7379 18.9228C22.0014 18.6093 23.2876 18.3629 24.5873 18.2857C24.81 18.2398 25.0405 18.2973 25.2629 18.2447C25.5606 18.2306 25.8592 18.243 26.1575 18.2389C26.1563 18.1104 26.1494 17.9804 26.1782 17.8541C26.2075 17.5282 26.1543 17.1974 26.2129 16.8738C26.2192 16.4597 26.2089 16.0454 26.2175 15.6317C26.2572 15.4419 26.2405 15.2477 26.2434 15.0553C26.2437 13.8311 26.2425 12.6069 26.244 11.3828C26.2463 11.2762 26.2092 11.1739 26.2138 11.0675C26.2155 10.4406 26.2138 9.81361 26.2149 9.18665C26.2322 9.00174 26.1738 8.82174 26.1853 8.63711C26.1871 8.03095 26.1848 7.42507 26.1865 6.8192C26.1899 6.72154 26.1566 6.62822 26.1569 6.53114C26.1572 5.06398 26.1569 3.59711 26.1572 2.12995C26.0287 2.13111 25.8991 2.13776 25.7733 2.10915C25.5161 2.08604 25.2569 2.11724 25 2.09268C24.7422 2.11724 24.4825 2.08546 24.2253 2.10944ZM2.1474 3.89239C2.1474 9.59923 2.1474 15.3058 2.1474 21.0126C3.85459 21.0132 5.56177 21.0115 7.26896 21.0135C7.5635 21.0646 7.86378 21.0323 8.16148 21.0424C8.28735 21.0525 8.4089 21.0094 8.53476 21.0118C9.13649 21.0135 9.7385 21.0118 10.3402 21.0129C8.88332 20.5275 7.37815 20.1687 5.8474 20.0343C5.70085 20.0002 5.54855 20.0294 5.402 19.9939C5.22068 19.9716 5.03562 20.0051 4.85631 19.9609C4.627 19.9572 4.39453 19.9401 4.16809 19.9829C4.00947 19.995 3.84827 19.969 3.69194 20.0063C3.56321 20.0184 3.43332 20.0127 3.30602 20.0404C3.07212 20.0441 2.83677 20.0502 2.60315 20.0372C2.58447 19.937 2.59625 19.8341 2.59396 19.733C2.59367 14.4413 2.59424 9.14967 2.59367 3.85801C2.44798 3.89904 2.29712 3.89586 2.1474 3.89239ZM27.8371 3.89268C27.8373 6.02379 27.8371 8.15519 27.8373 10.2863C27.8396 10.3834 27.8713 10.4776 27.8667 10.5752C27.8646 11.0956 27.8669 11.6156 27.8652 12.136C27.8629 12.2423 27.8997 12.3452 27.8954 12.4518C27.8917 12.674 27.8997 12.8964 27.8914 13.1186C27.8256 13.4804 27.9063 13.8522 27.8388 14.2136C27.8348 15.2931 27.8382 16.3728 27.8371 17.4525C27.8342 17.6068 27.8497 17.7634 27.8161 17.9159C27.7853 18.347 27.8428 18.7836 27.7796 19.2123C27.7724 19.3793 27.7963 19.5486 27.7621 19.7136C27.7414 19.8199 27.7589 19.9289 27.7442 20.0355C27.6158 20.0534 27.4856 20.0401 27.3569 20.0436C27.2095 20.0401 27.0603 20.0566 26.9152 20.0259C26.8106 20.006 26.7032 20.0233 26.5991 20.002C26.4098 19.9615 26.2141 20.0103 26.025 19.9682C25.7299 19.9196 25.4373 20.004 25.1419 19.9849C25.0063 19.9751 24.8756 20.0233 24.7405 20.0147C23.1379 20.1406 21.554 20.4894 20.0336 21.0129C22.7644 21.0123 25.4951 21.0126 28.2261 21.0126C28.2261 15.3061 28.2261 9.59923 28.2261 3.89268C28.0963 3.89268 27.9667 3.89268 27.8371 3.89268Z" fill="currentColor" fill-opacity="0.75"/>
</svg>
