<svg width="29" height="30" viewBox="0 0 29 30" fill="none" xmlns="http://www.w3.org/2000/svg">
<g clip-path="url(#clip0_2_208)">
<path d="M1.4062 0.178942C1.78682 0.106573 2.18104 0.149994 2.56771 0.140784C10.5729 0.143415 18.5781 0.143415 26.5818 0.140784C26.9625 0.15131 27.3536 0.105258 27.7267 0.180258C28.0182 0.411837 28.4291 0.656573 28.3762 1.04605C28.3762 10.3039 28.3747 19.5618 28.3777 28.8184C28.414 29.2618 28.053 29.6776 27.5772 29.8145C27.1407 29.9895 26.7918 29.6 26.4217 29.4632C22.9115 27.6079 19.3802 25.7855 15.8639 23.9408C15.4168 23.7434 15.0045 23.4408 14.5045 23.3645C13.7448 23.5724 13.1331 24.0579 12.4292 24.3724C9.01417 26.1842 5.55984 27.9408 2.15234 29.7618C1.70375 30.0276 1.12375 29.7197 0.879063 29.3684C0.537709 28.9316 0.667604 28.3882 0.646459 27.8934C0.647969 19.0342 0.649479 10.175 0.644948 1.31447C0.643438 0.865784 0.928907 0.37631 1.4062 0.178942ZM2.94984 2.0421C2.93776 3.61578 2.92719 5.18947 2.95438 6.76184C10.6756 6.80789 18.3984 6.76315 26.1196 6.78421C26.1619 5.20131 26.1211 3.60921 26.1332 2.02368C18.4059 2.05526 10.6771 2.0171 2.94984 2.0421ZM2.93021 8.70394C2.95589 14.3987 2.93172 20.0947 2.94229 25.7895C2.95135 26.1987 2.90604 26.6066 2.85016 27.0118C3.57516 26.9776 4.09625 26.4868 4.72912 26.2447C7.87531 24.6487 10.9626 22.9724 14.0937 21.3539C14.6344 21.2329 15.1827 21.35 15.5966 21.6737C18.6597 23.1987 21.6277 24.8645 24.6893 26.3921C25.156 26.7145 25.6967 26.9776 26.3054 26.996C26.023 25.9526 26.1665 24.8776 26.1332 23.8158C26.1544 18.771 26.0909 13.725 26.168 8.68026C18.856 8.66052 11.5426 8.68026 4.23068 8.66973C3.79719 8.6671 3.36219 8.675 2.93021 8.70394Z" fill="currentColor" fill-opacity="0.75"/>
</g>
<defs>
<clipPath id="clip0_2_208">
<rect width="29" height="30" fill="white"/>
</clipPath>
</defs>
</svg>
