<svg width="30" height="23" viewBox="0 0 30 23" fill="none" xmlns="http://www.w3.org/2000/svg">
<path d="M8.36347 0.631132C9.42066 0.455632 10.5343 0.815632 11.3446 1.51651C12.1517 2.23088 12.5878 3.31651 12.5934 4.39538C12.6177 4.64176 12.3387 4.71151 12.2037 4.85888C11.5638 5.52601 11.0801 6.36863 10.9162 7.29451C10.9029 7.49701 10.7081 7.59151 10.5531 7.67251C9.79262 8.05051 8.90147 8.17988 8.07564 7.96726C7.02288 7.72876 6.09963 6.98513 5.62472 6.00188C4.95719 4.68338 5.15978 2.94751 6.16937 1.86301C6.70959 1.18801 7.52767 0.778507 8.36347 0.631132Z" fill="currentColor" fill-opacity="0.75"/>
<path d="M19.2985 1.26339C20.2085 0.585012 21.4494 0.409512 22.5166 0.771762C23.1155 0.940512 23.6114 1.33764 24.0653 1.75276C25.3937 3.14101 25.4026 5.61376 23.9933 6.94576C22.9649 8.08764 21.2092 8.36664 19.8443 7.72426C19.6705 6.32364 18.89 5.01864 17.7033 4.27276C17.7409 3.09151 18.3177 1.91926 19.2985 1.26339Z" fill="currentColor" fill-opacity="0.75"/>
<path d="M14.9037 4.45276C15.5768 4.34476 16.2587 4.52589 16.8819 4.77676C18.1107 5.33026 18.9509 6.62964 19.0085 7.98864C19.0638 9.12714 18.5723 10.2814 17.7199 11.0228C16.9971 11.5954 16.0838 11.9734 15.155 11.9048C14.2793 11.853 13.4247 11.475 12.7804 10.8709C12.0321 10.1261 11.6059 9.04951 11.6535 7.98526C11.7155 6.68364 12.4915 5.45289 13.6295 4.85439C14.0236 4.63614 14.4686 4.54726 14.9037 4.45276Z" fill="currentColor" fill-opacity="0.75"/>
<path d="M2.67232 12.7069C2.78524 10.5559 4.52878 8.63889 6.62768 8.34639C7.70037 8.23726 8.7797 8.29014 9.85572 8.27551C10.1779 8.26764 10.4989 8.28901 10.8177 8.33514C10.8675 9.51751 11.3856 10.6616 12.2125 11.4908C10.9594 11.9216 9.81587 12.7361 9.11402 13.8904C8.53395 14.8061 8.21513 15.8985 8.24945 16.9909C8.22841 17.361 8.30812 17.7446 8.18524 18.1024C6.31328 17.9325 4.43026 17.6276 2.66125 16.9661C2.6845 15.5464 2.66015 14.1266 2.67232 12.7069Z" fill="currentColor" fill-opacity="0.75"/>
<path d="M19.8332 8.32726C20.0823 8.25864 20.3402 8.27439 20.5959 8.27551C21.6941 8.29126 22.7967 8.22826 23.8893 8.37451C25.0206 8.64226 26.0878 9.29476 26.7553 10.2735C27.3498 11.1004 27.6708 12.1331 27.6376 13.158C27.6354 14.4158 27.6332 15.6735 27.6387 16.9313C26.9513 17.3126 26.1941 17.5286 25.4402 17.7221C24.4439 17.937 23.431 18.1125 22.4092 18.1001C22.3727 17.1585 22.5077 16.182 22.179 15.2786C21.6719 13.4775 20.1963 12.0566 18.4539 11.4964C19.2742 10.6628 19.8221 9.51639 19.8332 8.32726Z" fill="currentColor" fill-opacity="0.75"/>
<path d="M10.9649 13.0748C11.6435 12.5798 12.4428 12.2423 13.2753 12.1545C14.6457 12.1466 16.0162 12.1466 17.3867 12.1545C18.735 12.3008 20.0159 13.068 20.7742 14.2155C21.3011 15.0323 21.6177 16.0076 21.5812 16.9898C21.579 18.2543 21.5834 19.5188 21.579 20.7844C20.5937 21.2816 19.5166 21.5865 18.4284 21.7316C17.1409 22.0129 15.8114 21.924 14.5029 21.9251C12.6642 21.8126 10.8542 21.4009 9.09408 20.8575C9.08301 19.5311 9.09187 18.2048 9.08965 16.8784C9.07084 15.4035 9.80146 13.95 10.9649 13.0748Z" fill="currentColor" fill-opacity="0.75"/>
</svg>
