<svg width="28" height="29" viewBox="0 0 28 29" fill="none" xmlns="http://www.w3.org/2000/svg">
<g clip-path="url(#clip0_2_200)">
<path d="M1.89154 1.07185C2.56281 0.503343 3.41503 0.17885 4.27582 0.146912C9.1691 0.146912 14.0636 0.146912 18.9569 0.146912C19.9424 0.159687 20.7078 1.29541 20.3544 2.27017C20.1441 2.99709 19.4019 3.40334 18.7099 3.39312C13.9413 3.38801 9.17154 3.39185 4.40298 3.39057C4.10097 3.3663 3.79285 3.53493 3.63512 3.80449C3.46516 4.07788 3.52875 4.41643 3.51774 4.72431C3.52263 11.37 3.51407 18.017 3.52141 24.6628C3.52141 25.1329 3.96281 25.5123 4.40298 25.474C10.8821 25.4714 17.3612 25.4778 23.8404 25.4702C24.3099 25.5021 24.6926 25.0039 24.6999 24.5414C24.6975 21.5967 24.6987 18.6533 24.6987 15.7085C24.6706 15.0493 25.123 14.4655 25.6854 14.2189C26.1073 14.1768 26.5829 14.0925 26.9619 14.3467C27.4437 14.5894 27.7665 15.1439 27.7457 15.7034C27.7457 18.7312 27.7481 21.7589 27.7445 24.7867C27.6919 26.8435 25.9422 28.6487 23.9761 28.7126C17.4493 28.7215 10.9225 28.7113 4.39565 28.7189C3.25364 28.7164 2.1373 28.1658 1.38534 27.274C0.810667 26.5382 0.443855 25.6171 0.403505 24.664C0.402283 17.8471 0.403505 11.0302 0.402283 4.21202C0.412064 3.75978 0.538003 3.32158 0.650492 2.88722C0.942719 2.19991 1.31075 1.53687 1.89154 1.07185Z" fill="currentColor" fill-opacity="0.75"/>
<path d="M23.7621 5.27365C24.1082 4.97854 24.5972 4.84185 25.0338 4.96449C25.6145 5.08586 26.0633 5.61476 26.2186 6.19476C26.3384 6.74537 26.1403 7.34581 25.7613 7.73801C25.2514 8.27202 24.7501 8.8137 24.2365 9.34387C22.8659 10.9408 21.3571 12.4048 19.9705 13.9839C18.7172 15.347 17.4444 16.6935 16.1716 18.0388C15.8084 18.5063 15.4159 19.0161 14.8376 19.1898C14.2617 19.3853 13.6051 19.1068 13.2371 18.6277C12.4276 17.7258 11.5485 16.889 10.7941 15.9321C10.349 15.4083 9.68266 14.9906 9.60685 14.2292C9.43445 13.2071 10.3894 12.2579 11.3565 12.4215C11.9728 12.5045 12.3714 13.0347 12.7614 13.4831C13.2982 14.1091 13.8692 14.7018 14.4341 15.301C15.1408 14.5613 15.8292 13.8012 16.5445 13.0692C17.1632 12.2733 17.9066 11.5949 18.5754 10.845C20.3117 8.99383 21.9929 7.09158 23.7621 5.27365Z" fill="currentColor" fill-opacity="0.75"/>
</g>
<defs>
<clipPath id="clip0_2_200">
<rect width="28" height="29" fill="white"/>
</clipPath>
</defs>
</svg>
