<svg width="24" height="30" viewBox="0 0 24 30" fill="none" xmlns="http://www.w3.org/2000/svg">
<g clip-path="url(#clip0_2_224)">
<path d="M3.64234 0H19.691C20.4307 0.124805 21.1447 0.43125 21.728 0.908203C22.5114 1.56035 23.0283 2.53535 23.1216 3.55371C23.1519 3.95039 23.1589 4.34824 23.1624 4.74551C23.1554 11.6795 23.1566 18.6141 23.1618 25.548C23.1875 26.4592 23.0358 27.4166 22.5167 28.1842C21.9088 29.1814 20.8198 29.8154 19.684 30H3.64934C2.51592 29.8137 1.42159 29.182 0.817836 28.183C0.302169 27.4348 0.157502 26.4984 0.171502 25.6066C0.178502 18.5742 0.175002 11.5424 0.173252 4.51055C0.158669 3.58184 0.284669 2.60098 0.817252 1.81641C1.42217 0.820898 2.51125 0.188672 3.64234 0ZM3.99175 1.20059C2.53925 1.23809 1.29559 2.5834 1.4035 4.0418C1.39125 11.073 1.4105 18.1049 1.39417 25.1367C1.40934 25.807 1.32125 26.5154 1.6135 27.143C2.01717 28.1748 3.11384 28.8299 4.19884 28.827C8.86609 28.8328 13.5333 28.8223 18.2 28.8316C18.9286 28.8234 19.6887 28.8533 20.3712 28.5486C21.2818 28.1232 21.9543 27.1564 21.9363 26.1346C21.9345 19.0049 21.9258 11.8752 21.9403 4.74609C21.9328 4.07344 21.9783 3.35039 21.6662 2.73223C21.2211 1.76719 20.1769 1.17656 19.1345 1.17305C14.5647 1.16719 9.99484 1.17773 5.425 1.16836C4.94725 1.16895 4.46834 1.16719 3.99175 1.20059Z" fill="currentColor" fill-opacity="0.75"/>
<path d="M4.1656 3.42949C4.93327 3.36504 5.70502 3.40254 6.47502 3.39727C10.5589 3.39844 14.6429 3.40137 18.7268 3.39434C19.0412 3.38145 19.5137 3.4043 19.6239 3.77637C19.6998 5.13223 19.6589 6.49395 19.649 7.85156C19.7161 8.15977 19.4554 8.43398 19.1684 8.46387C18.4001 8.53184 17.6278 8.49141 16.8584 8.49727C12.7744 8.49668 8.69052 8.49258 4.6066 8.50078C4.28402 8.52539 3.84244 8.46914 3.7071 8.11875C3.63594 6.7623 3.6721 5.40059 3.68552 4.04297C3.6231 3.73535 3.86344 3.4418 4.1656 3.42949ZM4.84227 4.57031C4.8411 5.47676 4.83935 6.38262 4.84169 7.28906C9.39052 7.29492 13.9411 7.26445 18.4894 7.30488C18.4934 6.39316 18.4929 5.48145 18.4911 4.57031C13.9417 4.57031 9.39227 4.57031 4.84227 4.57031Z" fill="currentColor" fill-opacity="0.75"/>
<path d="M4.16498 10.4033C5.3229 10.3295 6.48432 10.3775 7.64398 10.3688C7.96598 10.3248 8.39532 10.452 8.4869 10.8035C8.55865 11.9666 8.50732 13.1338 8.51898 14.2986C8.48923 14.5775 8.57965 14.9473 8.29965 15.1324C8.14798 15.2971 7.89424 15.2555 7.6994 15.2836C6.63015 15.307 5.55973 15.3041 4.4899 15.2895C4.23207 15.3041 3.92407 15.2543 3.7654 15.0252C3.62015 14.8383 3.72107 14.5682 3.67323 14.3572C3.67732 13.1848 3.65165 12.0117 3.68432 10.8393C3.70998 10.6025 3.94098 10.4314 4.16498 10.4033ZM4.84282 11.5664C4.84107 12.3984 4.8399 13.2305 4.84165 14.0625C5.67757 14.0625 6.51348 14.0637 7.3494 14.0625C7.35057 13.2293 7.3529 12.3967 7.34707 11.5635C6.51348 11.6115 5.67698 11.5816 4.84282 11.5664Z" fill="currentColor" fill-opacity="0.75"/>
<path d="M9.76557 10.4033C11.0168 10.3395 12.2733 10.3535 13.5252 10.3916C13.8122 10.4016 14.0729 10.6266 14.0846 10.9225C14.1482 12.1793 14.1342 13.4414 14.0962 14.6988C14.0863 14.9871 13.8623 15.249 13.5677 15.2607C12.3165 15.3246 11.06 15.3105 9.80815 15.2725C9.52115 15.2625 9.2604 15.0375 9.24873 14.7416C9.18515 13.4848 9.19915 12.2227 9.23707 10.9652C9.24698 10.677 9.47098 10.415 9.76557 10.4033ZM10.444 11.5652C10.444 12.3984 10.4498 13.2316 10.4061 14.0637C11.2344 14.0631 12.0627 14.0631 12.8917 14.0625C12.8952 13.2316 12.8981 12.4014 12.8701 11.5711C12.0616 11.5863 11.2519 11.601 10.444 11.5652Z" fill="currentColor" fill-opacity="0.75"/>
<path d="M15.3061 10.4004C16.464 10.333 17.6254 10.3752 18.7851 10.3699C19.0937 10.3418 19.5014 10.4203 19.6263 10.7484C19.7033 12.0076 19.6467 13.2721 19.6613 14.5336C19.754 14.8787 19.5008 15.2332 19.1549 15.2572C17.9836 15.3311 16.8064 15.2988 15.6339 15.283C15.3312 15.3029 14.9246 15.1998 14.8464 14.8605C14.7793 13.6002 14.8143 12.3352 14.8243 11.0736C14.7694 10.7689 14.9993 10.4326 15.3061 10.4004ZM15.9839 11.5682C15.9828 12.3996 15.9816 13.2305 15.9833 14.0625C16.8193 14.0625 17.6552 14.0637 18.4911 14.0625C18.4917 13.2328 18.494 12.4031 18.4917 11.574C17.6558 11.5687 16.8193 11.6098 15.9839 11.5682Z" fill="currentColor" fill-opacity="0.75"/>
<path d="M4.22331 15.9076C5.08897 15.8461 5.95814 15.8859 6.82498 15.8713C7.31614 15.89 7.84289 15.8039 8.29906 16.0389C8.57731 16.2152 8.48864 16.5984 8.51839 16.8732C8.51839 17.9479 8.53706 19.023 8.50731 20.0977C8.55514 20.3883 8.37898 20.71 8.08381 20.7668C7.02506 20.8494 5.96106 20.7814 4.89997 20.8096C4.53889 20.7891 4.10431 20.8869 3.81322 20.6045C3.62072 20.4117 3.71172 20.1041 3.67322 19.865C3.66972 18.7893 3.66739 17.7135 3.67206 16.6377C3.58397 16.2838 3.86806 15.9135 4.22331 15.9076ZM4.84164 17.1094C4.84164 17.949 4.84047 18.7887 4.84164 19.6289C5.67756 19.6289 6.51347 19.6301 7.34998 19.6289C7.34998 18.7893 7.35114 17.949 7.34998 17.1094C6.51406 17.1094 5.67814 17.1076 4.84164 17.1094Z" fill="currentColor" fill-opacity="0.75"/>
<path d="M9.82392 15.9094C10.9818 15.8461 12.1433 15.8736 13.3023 15.8824C13.6103 15.8959 14.0187 15.9738 14.0683 16.3395C14.1721 17.5289 14.1103 18.7295 14.112 19.9236C14.1406 20.2529 14.021 20.7322 13.6273 20.7709C12.3533 20.8353 11.0746 20.8049 9.79942 20.7937C9.50659 20.7891 9.26742 20.5377 9.24876 20.2494C9.18401 18.9926 9.20034 17.7299 9.23651 16.4725C9.24234 16.1584 9.52059 15.9176 9.82392 15.9094ZM10.416 17.1088C10.4528 17.9478 10.4411 18.7887 10.4423 19.6289C11.2589 19.6289 12.075 19.6295 12.8917 19.6295C12.8917 18.7893 12.8928 17.9496 12.8917 17.11C12.0663 17.1094 11.2408 17.107 10.416 17.1088Z" fill="currentColor" fill-opacity="0.75"/>
<path d="M15.3784 15.9141C16.5509 15.8385 17.7281 15.883 18.9024 15.8777C19.1993 15.8566 19.4338 16.0646 19.6648 16.2205C19.635 17.591 19.6922 18.9621 19.6479 20.332C19.6286 20.5746 19.4017 20.7545 19.1678 20.7697C17.913 20.8365 16.6536 20.8025 15.3971 20.7973C15.0459 20.7984 14.7572 20.4521 14.826 20.0977C14.8021 18.9264 14.8027 17.7533 14.8254 16.5814C14.7484 16.2275 15.0494 15.9334 15.3784 15.9141ZM15.9834 17.1094C15.9834 17.949 15.9816 18.7887 15.9834 19.6289C16.8193 19.6289 17.6552 19.6301 18.4917 19.6289C18.4917 18.7893 18.4929 17.949 18.4917 17.1094C17.6558 17.1094 16.8193 17.1076 15.9834 17.1094Z" fill="currentColor" fill-opacity="0.75"/>
<path d="M4.22391 21.358C5.46991 21.3023 6.72233 21.3012 7.96833 21.3574C8.29675 21.375 8.58025 21.6891 8.5085 22.0307C8.53008 23.2025 8.5295 24.3756 8.50908 25.5475C8.58666 25.9717 8.15791 26.3168 7.75833 26.2406C6.59225 26.2617 5.42441 26.2682 4.25833 26.2395C3.94275 26.2271 3.60908 25.9588 3.68433 25.6055C3.66391 24.3363 3.65866 23.0654 3.68433 21.7963C3.71058 21.535 3.98066 21.3715 4.22391 21.358ZM4.84225 22.5586C4.84108 23.3865 4.83933 24.215 4.84108 25.0436C5.677 25.0289 6.51408 25.0629 7.34941 25.016C7.35 24.1969 7.35116 23.3777 7.35058 22.5586C6.51408 22.5586 5.67816 22.5568 4.84225 22.5586Z" fill="currentColor" fill-opacity="0.75"/>
<path d="M9.76557 21.3603C11.0168 21.2965 12.2733 21.3105 13.5252 21.3486C13.8122 21.3586 14.0729 21.5836 14.0846 21.8795C14.1482 23.1363 14.1342 24.3984 14.0962 25.6559C14.0863 25.9441 13.8623 26.2061 13.5677 26.2178C12.3165 26.2816 11.06 26.267 9.80815 26.2295C9.52115 26.2195 9.2604 25.9945 9.24873 25.6986C9.18515 24.4418 9.19915 23.1797 9.23707 21.9223C9.24698 21.634 9.47098 21.3721 9.76557 21.3603ZM10.4131 22.5574C10.4492 23.3766 10.4428 24.1969 10.4428 25.0172C11.2589 25.0693 12.0762 25.0189 12.8928 25.0541C12.8922 24.2227 12.8922 23.3906 12.8917 22.5592C12.0651 22.5586 11.2391 22.5557 10.4131 22.5574Z" fill="currentColor" fill-opacity="0.75"/>
<path d="M15.365 21.3557C16.5229 21.2965 17.6844 21.324 18.8434 21.3316C19.1007 21.3164 19.4093 21.3674 19.5679 21.5959C19.7132 21.7822 19.6111 22.0506 19.6601 22.2639C19.6554 23.4363 19.6817 24.6094 19.649 25.7818C19.607 26.124 19.201 26.2711 18.9 26.24C17.7334 26.2635 16.5655 26.2658 15.3994 26.2406C15.0634 26.2219 14.7496 25.9037 14.8249 25.5475C14.8033 24.3756 14.8033 23.2025 14.8243 22.0307C14.7613 21.699 15.0349 21.3621 15.365 21.3557ZM15.9834 22.5586C15.9828 23.3789 15.9822 24.1998 15.9845 25.0213C16.8187 25.0793 17.6558 24.9955 18.4899 25.0582C18.4929 24.225 18.4929 23.3918 18.4917 22.5586C17.6552 22.5586 16.8193 22.5568 15.9834 22.5586Z" fill="currentColor" fill-opacity="0.75"/>
</g>
<defs>
<clipPath id="clip0_2_224">
<rect width="23.3333" height="30" fill="white"/>
</clipPath>
</defs>
</svg>
