<svg width="30" height="29" viewBox="0 0 30 29" fill="none" xmlns="http://www.w3.org/2000/svg">
<path d="M22.5028 0.854137C24.4713 2.00248 26.4165 3.19285 28.363 4.37644C28.0096 5.01094 27.6302 5.63188 27.2493 6.25147C25.8357 5.40954 24.4343 4.54998 23.0178 3.71482C22.3822 4.43067 21.8137 5.2021 21.1932 5.93015C21.0425 6.15115 20.7932 6.34909 20.8137 6.64058C20.8192 7.21543 20.7658 7.79841 20.8493 8.36648C21.537 9.27756 22.285 10.1439 22.9987 11.0346C24.4398 10.2388 25.8124 9.33043 27.2439 8.52104C27.622 9.14063 28.0411 9.73988 28.3603 10.392C26.4014 11.558 24.4617 12.7633 22.4891 13.9048C21.7644 12.9653 20.9726 12.0786 20.2521 11.1377C20.0617 10.9465 19.911 10.6198 19.5946 10.6482C18.5493 10.6333 17.5028 10.6496 16.4576 10.6496C16.3151 9.90935 16.3644 9.15825 16.4288 8.41393C16.3233 7.7374 16.3685 7.0568 16.4288 6.37892C16.3151 5.62375 16.3726 4.86316 16.4548 4.10799C17.585 4.10393 18.7151 4.12969 19.8439 4.09715C20.7398 3.02338 21.6069 1.92791 22.5028 0.854137Z" fill="currentColor" fill-opacity="0.75"/>
<path d="M5.95208 3.06676C7.31509 2.88373 8.75208 3.37452 9.69044 4.37644C11.1562 5.81491 11.3329 8.34479 10.0493 9.95138C9.18359 11.1526 7.66304 11.8373 6.18085 11.7342C5.1192 11.6149 4.08907 11.1485 3.34523 10.3825C2.574 9.56498 2.09044 8.45054 2.18633 7.31982C2.07263 5.21024 3.87674 3.31758 5.95208 3.06676ZM5.80688 5.33904C4.97263 5.61561 4.3329 6.43586 4.35619 7.31982C4.26989 8.50341 5.39181 9.59074 6.57811 9.53922C7.73427 9.54194 8.79455 8.47765 8.69455 7.31982C8.73153 5.91524 7.12605 4.82791 5.80688 5.33904Z" fill="currentColor" fill-opacity="0.75"/>
<path d="M11.8014 5.18583C12.9699 5.19126 14.137 5.17906 15.3041 5.19126C15.3206 6.65549 15.3206 8.11837 15.3055 9.58261C14.1384 9.58261 12.9699 9.58125 11.8028 9.58261C12.3767 8.18345 12.3767 6.58499 11.8014 5.18583Z" fill="currentColor" fill-opacity="0.75"/>
<path d="M5.95754 6.31926C6.58083 6.00743 7.4096 6.28672 7.64247 6.95376C7.92603 7.5137 7.56713 8.17803 7.06165 8.47359C6.59864 8.61459 6.01919 8.59018 5.66439 8.22141C5.12192 7.68588 5.24384 6.65549 5.95754 6.31926Z" fill="currentColor" fill-opacity="0.75"/>
<path d="M6.30274 13.1957C7.9548 13.3896 9.63973 12.6833 10.7151 11.4427C12.1932 13.8899 13.6219 16.3655 15.0877 18.8209C16.0644 20.4315 16.9699 22.0896 17.989 23.6718C20.0219 23.6921 22.0589 23.6122 24.089 23.7111C24.0849 24.789 24.1014 25.8682 24.0808 26.946C17.511 26.9474 10.9411 26.946 4.36986 26.946C4.26849 25.8627 4.33425 24.7686 4.33699 23.6827C6.30137 23.6555 8.26576 23.665 10.2315 23.6786C9.05617 21.5514 7.73836 19.5042 6.53288 17.3932C5.43973 15.5833 4.37123 13.7611 3.29315 11.9417C4.18219 12.5789 5.18082 13.1347 6.30274 13.1957Z" fill="currentColor" fill-opacity="0.75"/>
</svg>
