<svg width="30" height="27" viewBox="0 0 30 27" fill="none" xmlns="http://www.w3.org/2000/svg">
<path d="M1.42955 1.68625C1.9565 1.29526 2.64911 1.46592 3.26085 1.43153C4.07607 1.46974 4.91737 1.32328 5.71041 1.57418C6.57781 1.87857 7.2952 2.62108 7.46607 3.51642C8.24868 6.72082 8.99085 9.93285 9.79302 13.1321C14.7065 13.136 19.62 13.1283 24.5348 13.136C24.8778 12.5972 25.033 11.9783 25.2769 11.3962C25.8391 9.91629 26.3935 8.43254 26.9726 6.95898C27.1187 6.55652 27.3 6.15661 27.3104 5.72358C27.0861 5.66245 26.8604 5.59495 26.6256 5.60132C22.14 5.60259 17.653 5.60004 13.1661 5.60259C12.6078 5.67137 12.06 5.1339 12.15 4.58625C12.1839 4.24875 12.4774 4.00676 12.7382 3.81572C17.5369 3.82591 22.3343 3.81954 27.133 3.81954C27.6808 3.79917 28.183 4.09974 28.5808 4.44361C29.0726 4.96197 29.2735 5.70321 29.1782 6.39987C28.41 8.46184 27.613 10.5149 26.833 12.573C26.5617 13.1487 26.4874 13.8428 25.9852 14.2886C25.5587 14.7675 24.8987 15.0056 24.2582 14.9891C19.5835 14.9903 14.91 14.9865 10.2352 14.9916C10.32 15.4909 10.4543 15.9799 10.5939 16.4677C14.9765 16.4664 19.3604 16.4703 23.7443 16.4652C24.2922 16.4486 24.8752 16.7059 25.1491 17.1848C25.6017 17.9578 25.1348 19.1538 24.1643 19.2238C19.5848 19.2429 15.0052 19.2251 10.4256 19.2327C9.19433 19.2658 8.08563 18.317 7.85476 17.1516C6.83737 12.8914 5.78737 8.63759 4.79607 4.37101C4.75824 4.32771 4.68389 4.24111 4.64737 4.19653C3.76302 4.14941 2.87607 4.22328 1.99172 4.16596C1.40998 4.11502 0.995198 3.61959 0.826937 3.1076C0.782589 2.57905 0.939111 1.97918 1.42955 1.68625Z" fill="currentColor" fill-opacity="0.75"/>
<path d="M10.2587 20.2707C11.447 20.2873 12.6365 20.2414 13.8235 20.2911C14.3126 20.5764 14.5604 21.1164 14.8213 21.5902C14.9804 22.176 14.9804 22.7823 14.8239 23.3694C14.4913 24.224 13.7974 24.9588 12.8739 25.2021C11.3504 25.7192 9.52436 24.657 9.23479 23.1159C8.9674 22.0754 9.42262 20.9419 10.2587 20.2707ZM11.31 22.7428C11.4874 22.9134 11.6309 23.135 11.8644 23.2369C12.137 23.3197 12.3796 23.158 12.617 23.0535C12.6652 22.9695 12.7591 22.8001 12.8074 22.7148C12.7996 22.2792 12.4539 21.8411 11.9778 21.8831C11.5552 21.9646 11.3557 22.3607 11.31 22.7428Z" fill="currentColor" fill-opacity="0.75"/>
<path d="M19.093 20.2643C20.2722 20.2771 21.4513 20.2707 22.6317 20.2682C23.2826 20.7903 23.7443 21.5698 23.7248 22.4091C23.8056 23.3936 23.2382 24.3806 22.3865 24.8952C21.6522 25.3371 20.7313 25.4479 19.9108 25.1856C19.1517 24.8926 18.5021 24.359 18.1695 23.6203C17.9791 23.009 17.8265 22.3518 18.0665 21.7303C18.1917 21.124 18.6417 20.6655 19.093 20.2643ZM20.5304 21.8767C20.3752 22.0321 20.2174 22.1862 20.0595 22.339C20.0504 22.702 20.1795 23.2026 20.6243 23.2408C21.0991 23.3681 21.5869 22.8816 21.4513 22.4206C21.4017 21.999 20.9008 21.8576 20.5304 21.8767Z" fill="currentColor" fill-opacity="0.75"/>
</svg>
