<svg width="90" height="73" viewBox="0 0 90 73" fill="none" xmlns="http://www.w3.org/2000/svg">
<g id="photo_2023-07-25_17-57-04 1">
<g id="#fecc02ff">
<path id="Vector" d="M5.65522 2.96137C7.97015 2.31886 10.791 2.48281 12.5328 4.3173C15.5239 6.78988 15.3985 11.9211 12.3269 14.2874C9.00895 17.3138 2.8388 15.5236 1.68806 11.2033C1.28955 9.20485 1.25373 6.82533 2.70447 5.21239C3.49701 4.25526 4.50895 3.46209 5.65522 2.96137Z" fill="#FECC02"/>
<path id="Vector_2" d="M39.2911 10.8045C44.7761 10.7115 50.2612 10.7204 55.7463 10.8045C59.0284 15.7187 61.7597 20.974 64.8358 26.0166C68.6015 32.9115 72.8866 39.5272 76.5761 46.4575C75.4299 47.2817 74.2702 48.097 73.0209 48.7617C69.0269 50.9285 65.109 53.2327 61.1866 55.5147C60.009 56.175 58.7552 56.8574 57.3582 56.7953C49.8314 56.7643 42.3045 56.8219 34.7776 56.7643C34.7149 54.4424 34.697 52.1205 34.7911 49.803C40.8045 49.6878 46.8179 49.7808 52.8314 49.7587C54.7299 49.6878 56.8299 50.122 58.4687 48.9256C61.2 47.1665 64.2627 45.8992 66.7702 43.8254C66.4254 43.081 66.0851 42.3321 65.6776 41.6187C62.1134 35.5525 58.6433 29.4375 55.0433 23.3934C53.897 21.5146 52.9746 19.494 51.5328 17.8102C47.4448 17.7393 43.3522 17.8633 39.2642 17.757C39.1836 15.4395 39.206 13.122 39.2911 10.8045Z" fill="#FECC02"/>
<path id="Vector_3" d="M10.3298 18.364C12.1433 16.9947 14.1672 15.3907 16.4642 15.1204C20.0418 16.6801 23.2836 18.9444 26.7224 20.7922C28.5089 21.9709 30.8642 22.6489 31.8806 24.6695C32.8746 26.5084 33.891 28.3384 34.9298 30.1596C33.8463 31.1965 32.5343 31.9321 31.2089 32.6145C29.1 30.811 28.7463 27.5719 26.1582 26.2514C24.6045 25.3297 23.0686 24.3814 21.5194 23.4598C24.5015 28.7195 27.5507 33.9483 30.6403 39.1549C30.8597 39.6201 31.2269 40.0898 31.1507 40.6349C30.6672 44.1753 28.9701 47.4721 28.7507 51.0569C30.7567 52.4837 32.906 54.0257 33.7836 56.4186C35.1089 60.0521 34.2492 64.5497 31.1642 67.0755C28.903 69.4816 25.294 69.6012 22.2313 69.0828C19.0343 68.1256 16.3209 65.4847 15.5194 62.2455C14.9597 59.2944 15.4343 55.9134 17.6552 53.7111C18.8642 52.271 21.1075 51.6019 21.4925 49.5858C22.0836 47.1752 22.8806 44.8134 23.4179 42.3896C23.7448 41.0071 22.7686 39.8372 22.1552 38.6984C20.7224 36.5228 19.7821 34.0369 17.9955 32.1005C15.5239 34.1432 13.6791 36.8063 11.1269 38.7649C9.97611 37.8698 8.96417 36.8152 8.01044 35.7163C9.01342 33.0842 11.8164 31.777 13.2716 29.464C13.8806 27.8687 14.7134 25.9634 13.7776 24.3327C12.7119 22.2944 11.3955 20.3978 10.3298 18.364ZM23.5657 57.7745C22.0522 58.6031 22.0343 61.2574 23.5657 62.0727C24.7478 62.3519 26.3776 62.3962 27.0313 61.1599C27.4209 59.9679 27.188 58.5189 26.1089 57.7479C25.2895 57.4953 24.3806 57.4865 23.5657 57.7745Z" fill="#FECC02"/>
<path id="Vector_4" d="M71.3284 50.4676C74.1582 49.8251 77.409 49.8251 79.8672 51.5576C81.8821 52.9845 83.6239 55.0848 83.9642 57.584C84.2552 59.7286 84.0985 62.024 83.0418 63.9559C81.3806 66.8716 78.1791 68.9809 74.7358 68.9277C69.5239 69.2645 64.594 64.4567 65.0687 59.2589C64.7687 55.3285 67.8045 51.8501 71.3284 50.4676ZM73.6388 57.2428C72.1119 57.6061 72.0493 59.5248 72.3806 60.7567C73.0164 62.0284 74.6552 61.9841 75.8463 61.6429C77.0463 60.9561 77.1179 59.3919 76.7597 58.2088C76.0522 57.2383 74.7627 56.9991 73.6388 57.2428Z" fill="#FECC02"/>
</g>
</g>
</svg>
