<svg xmlns="http://www.w3.org/2000/svg" viewBox="0 0 100 100"><path fill="#333" d="M50.01 34.87C27.9 34.87 10 41.65 10 50.01s17.91 15.12 40.01 15.12C72.1 65.13 90 58.37 90 50.01S72.1 34.87 50.01 34.87zm0 1.52c21.26 0 38.47 6.12 38.47 13.62 0 7.53-17.21 13.57-38.47 13.57-21.21 0-38.44-6.04-38.44-13.57 0-7.5 17.24-13.62 38.44-13.62zm0 1.13c-20.59 0-37.23 5.6-37.23 12.49 0 6.91 16.64 12.51 37.23 12.51 20.56 0 37.25-5.6 37.25-12.51.01-6.88-16.69-12.48-37.25-12.49zm-8.79 2.46c4.39.04 7.89 1.37 13.62 1.44 1.29 0 2.94.05 4.28-.15 1.42-.23 1.11-.28 1.68-.28.52 0 .52.21.52.41 0 .83-2.89 2.4-5.34 2.4-3.64 0-7.39-1.65-9.33-2.16.31.23-.11.57-.3.74-.52.46-2.27 1.6-4.18 4.82 1.55-.08 3.35-.39 3.35-.39-.39-1.01.42-2.53 1.45-2.27 1.6.43.38 2.42-.7 2.79 0 .28.39.52.72.54-.08.28-.05.41-.18.39-.77 0-1.08-.75-1.08-.75-1.03.18-2.04.31-4.08.52-5.13 8.31-6.73 9.67-9.88 9.67-2.24 0-4.23-1.47-4.28-4.1-.03-1.6 1.26-3.56 3.66-4.15.28 0 .39.1.39.26 0 .1-.1.23-.33.34-.7.26-1.91 1.62-1.91 2.89-.04 1.27 1.07 2.5 2.4 2.3 2.5 0 5.31-2.81 8.36-7.1-.49.03-2.58.26-3.1.85-.36.27-.58-.11-.28-.46.82-.93 3.3-1.14 3.89-1.21 2.26-3.46 5.13-5.64 5.86-5.73-1.99-.47-3.86-.87-5.29-.87-4.98 0-7.2 2.14-7.1 4.1.05.8.7 1.32 1.65 1.14 1.03-.18 2.48-1.16 2.84-2.01.24-.39.54-.06.46.16-.13 1.01-1.68 3.79-4.36 3.79-1.5 0-2.5-1.39-2.48-2.76.04-2.58 2.64-5.16 9.07-5.16zm5.21 1.59.22.06c-.08-.07-.14-.1-.22-.06zm.43 3.54c-.78.08-.91 1.1-.72 1.65 0 0 .26.03.65-.41.22-.19.66-1.17.07-1.24zm23.66.18h2.04l-5.52 9.78c-.1.21-.36.59-.33.9.05.49.67.36.44.36 1.11-.05 3.15-2.17 3.64-2.68.1-.13.28-.36.39-.36.1 0 .31.1.31.26 0 .1-.23.49-.41.72-1.03 1.29-2.74 3.28-4.67 3.33-.95 0-1.31-.39-1.44-1.13-.98.83-4.75 1.99-5.5-.31-.23-.49-.34-1.21-.15-1.93-.7.36-1.34.41-2.27.39-1.08-.03-1.75-.52-2.09-1.78-1.24 2.27-1.29 2.35-2.55 4.72h-2.19l2.81-4.77c.32-.7 1.24-2.16.18-2.32-.36 0-.95.36-1.52.9 0 0-1.44 1.55-2.5 3.12-1.01 1.5-2.74 3.2-4.62 3.2-1.37 0-2.6-.75-2.86-2.19 0 0-.13.33-1.34 1.03-.1.05-.36.21-.44.16-.23-.21-.36-.47-.39-.65.08.03.23-.1.72-.49.96-.72 1.16-1.29 1.16-1.29 1.1-2.18 2.17-4.86 5.24-5.01.36 0 .46.16.54.28.21.15.13.46.13.46-2.43.45-3.72 2.09-4.13 4.18-.15 1.16.39 1.94 1.19 2.12 2.09.38 4.28-2.39 4.15-4.72 0-.62-.34-1.26-.59-1.52 0-.44.28-.72.62-.72.1 0 .21 0 .31.1.7.74.92 2.02.75 3.02 1.08-1.31 2.45-3.02 3.51-3.35.21-.1.41-.1.62-.1 1.93-.05 1.67 1.7 1.67 1.7 1.03-1.19 1.76-1.63 2.71-1.58 2 .12 1.7 2.68.03 2.81-.75 0-1.19-.36-1.42-1.03-.49.18-.72.51-.83 1.19-.15.85.49 1.52 1.32 1.52 1.42 0 2.04-.62 2.56-1.08 1.75-1.65 2.73-3.38 5.26-3.35 1.52.03 1.91 1.24 2.17 1.75-.04-.01 3.29-5.64 3.29-5.64zm-5.74 5.09c-1.52.15-3.46 2.41-3.65 4.1-.1.64.08 1.29.31 1.47.23.18 1.26.72 2.86-.9.9-.9 1.78-2.37 1.78-2.37l-.28-.08c.66-1.15.27-2.37-1.02-2.22z"/></svg>