<svg xmlns="http://www.w3.org/2000/svg" viewBox="0 0 100 100"><path fill="#333" d="M85 50.04c0 9.68-15.71 17.62-35 17.62-19.36 0-35-7.94-35-17.62 0-9.76 15.64-17.7 35-17.7 19.29 0 35 7.94 35 17.7zm-36.67-2.46c3.02-.56 5.95-1.59 8.25-2.46 7.46-2.62 10.95-5.32 11.67-5.95.95-.87.24-1.19-.64-1.51-5.08-1.51-12.78-2.62-17.7-2.38-3.57.08-5.56 3.97-6.35 5.63-3.72 7.86 2.95 7.07 4.77 6.67zM25.48 58.69c.16-.32 6.03-14.05 12.94-21.51.87-.79-.08-.95-1.19-.72-11.43 2.22-19.37 7.46-19.37 13.49 0 3.33 2.38 6.43 6.35 8.89.55.33 1.11.09 1.27-.15zm26.11-6.27c-3.02.56-5.95 1.59-8.25 2.46-7.46 2.62-10.95 5.4-11.67 6.03-.95.79-.24 1.19.63 1.43 5.08 1.51 12.78 2.62 17.7 2.46 3.57-.16 5.56-4.05 6.43-5.71 3.65-7.86-3.02-6.98-4.84-6.67zm30.47-2.38c0-3.33-2.3-6.35-6.35-8.81-.56-.4-1.03-.16-1.27.16-.16.24-6.03 13.97-12.94 21.43-.79.87.08 1.03 1.19.79 11.44-2.3 19.37-7.54 19.37-13.57z"/></svg>