<svg xmlns="http://www.w3.org/2000/svg" viewBox="0 0 100 100"><path fill="#333" d="M49.4 35.99h.6c19.31 0 35 6.28 35 14.01S69.31 64.01 50 64.01 15 57.73 15 50c0-7.22 13.67-13.19 31.56-13.92L41.6 54.32c-1.31 4.8 17.15-10.51 7.8-18.33zm-9.56 18.33 4.49-16.48c-13.9 1.05-24.56 6.12-24.56 12.18 0 6.68 13.04 12.4 30.23 12.4 17.34 0 30.21-5.89 30.21-12.4 0-4.3-5.72-8.76-16.22-11-3.66 14.81-26.45 23.76-24.15 15.3zm17.47 2.69c-1.59-.95 1.95-.65 2.88-.65v-1.59c-2.62 0-11.15-.62-7.31 1.91 3.07 2.02-1.91 2.56-2.88 2.56-3.82 0-8.04-.04-11.32-.64l-.36 1.24c5.42.99 12.26 1.21 18.03.71.01 0 5.61-.75.96-3.54z"/></svg>