<svg width="90" height="73" viewBox="0 0 90 73" fill="none" xmlns="http://www.w3.org/2000/svg">
<path d="M5.65522 2.96143C7.97015 2.31892 10.791 2.48287 12.5328 4.31736C15.5239 6.78994 15.3985 11.9212 12.3269 14.2874C9.00895 17.3139 2.8388 15.5237 1.68806 11.2034C1.28955 9.20491 1.25373 6.82539 2.70448 5.21245C3.49701 4.25533 4.50895 3.46215 5.65522 2.96143Z" fill="#FECC02"/>
<path d="M39.291 10.8045C44.7761 10.7115 50.2612 10.7204 55.7463 10.8045C59.0284 15.7187 61.7597 20.974 64.8358 26.0166C68.6015 32.9115 72.8866 39.5272 76.5761 46.4575C75.4299 47.2817 74.2702 48.097 73.0209 48.7617C69.0269 50.9285 65.109 53.2327 61.1866 55.5147C60.009 56.175 58.7552 56.8574 57.3582 56.7953C49.8313 56.7643 42.3045 56.8219 34.7776 56.7643C34.7149 54.4424 34.697 52.1205 34.791 49.803C40.8045 49.6878 46.8179 49.7808 52.8313 49.7587C54.7298 49.6878 56.8299 50.122 58.4687 48.9256C61.2 47.1665 64.2627 45.8992 66.7701 43.8254C66.4254 43.081 66.0851 42.3321 65.6776 41.6187C62.1134 35.5525 58.6433 29.4375 55.0433 23.3934C53.897 21.5146 52.9746 19.494 51.5328 17.8102C47.4448 17.7393 43.3522 17.8633 39.2642 17.757C39.1836 15.4395 39.206 13.122 39.291 10.8045Z" fill="#FECC02"/>
<path d="M10.3298 18.3641C12.1433 16.9949 14.1672 15.3908 16.4642 15.1205C20.0418 16.6802 23.2836 18.9446 26.7224 20.7923C28.509 21.971 30.8642 22.649 31.8806 24.6696C32.8746 26.5085 33.891 28.3386 34.9298 30.1598C33.8463 31.1966 32.5343 31.9322 31.209 32.6146C29.1 30.8111 28.7463 27.572 26.1582 26.2515C24.6045 25.3298 23.0687 24.3816 21.5194 23.4599C24.5015 28.7196 27.5507 33.9484 30.6403 39.155C30.8597 39.6202 31.2269 40.0899 31.1507 40.635C30.6672 44.1755 28.9701 47.4722 28.7507 51.057C30.7567 52.4838 32.906 54.0259 33.7836 56.4187C35.109 60.0522 34.2492 64.5498 31.1642 67.0756C28.903 69.4817 25.294 69.6013 22.2313 69.0829C19.0343 68.1258 16.3209 65.4848 15.5194 62.2456C14.9597 59.2945 15.4343 55.9135 17.6552 53.7113C18.8642 52.2711 21.1075 51.602 21.4925 49.5859C22.0836 47.1753 22.8806 44.8135 23.4179 42.3897C23.7448 41.0072 22.7687 39.8374 22.1552 38.6986C20.7224 36.5229 19.7821 34.037 17.9955 32.1006C15.5239 34.1434 13.6791 36.8065 11.1269 38.765C9.97612 37.8699 8.96418 36.8153 8.01045 35.7164C9.01343 33.0843 11.8164 31.7771 13.2716 29.4641C13.8806 27.8689 14.7134 25.9635 13.7776 24.3328C12.7119 22.2945 11.3955 20.398 10.3298 18.3641ZM23.5657 57.7746C22.0522 58.6032 22.0343 61.2575 23.5657 62.0728C24.7478 62.352 26.3776 62.3963 27.0313 61.16C27.4209 59.968 27.1881 58.519 26.109 57.748C25.2896 57.4955 24.3806 57.4866 23.5657 57.7746Z" fill="#FECC02"/>
<path d="M71.3284 50.4677C74.1582 49.8252 77.409 49.8252 79.8672 51.5577C81.8821 52.9846 83.6239 55.0849 83.9642 57.5841C84.2552 59.7288 84.0985 62.0241 83.0418 63.9561C81.3806 66.8718 78.1791 68.981 74.7358 68.9278C69.5239 69.2646 64.594 64.4568 65.0687 59.2591C64.7687 55.3286 67.8045 51.8502 71.3284 50.4677ZM73.6388 57.2429C72.1119 57.6063 72.0493 59.5249 72.3806 60.7568C73.0164 62.0285 74.6552 61.9842 75.8463 61.643C77.0463 60.9562 77.1179 59.392 76.7597 58.2089C76.0522 57.2385 74.7627 56.9992 73.6388 57.2429Z" fill="#FECC02"/>
</svg>
