<svg xmlns="http://www.w3.org/2000/svg" viewBox="0 0 100 100"><path fill="#333" d="M56.83 51.46c-2.66 5.71-9.84 18.97-11.33 21.51-.2.36-.54.91-.81.91 0 0 2.66-4.86 4.73-10.07-2.21-4.06-4.3-8.19-6.27-12.38-.35-.73-.51-1.09-.51-1.45 2.44-6.4 10.01-19.85 12.11-23.38.23-.36.35-.49.52-.49.05-.01-2.75 5.15-4.71 10.07 2.33 4.3 4.35 8.29 6.28 12.39.69 1.46.67 1.43-.01 2.89zm12.82-2.81c-1.84-4.25-11.06-20.4-12.75-22.74-.55-.74-.84-.74-1.38-.8-.71-.07-3.71-.11-5.52-.11-1.55 0-4.84.04-5.6.12-.72.07-.92.29-1.33.83-.57.74-5.33 8.8-7.81 13.27-1.8 3.24-4.64 8.83-4.9 9.43-.25.55-.36.97-.36 1.35 0 .4.11.83.35 1.35.6 1.29 2.39 4.87 4.9 9.43 2.62 4.76 7.34 12.63 7.85 13.31.53.72.88.75 1.35.8.73.06 3.87.11 5.55.11 1.81 0 5.09-.07 5.54-.11.45-.04.83-.07 1.35-.8 1.56-2.11 11.49-19.59 12.75-22.74.31-.7.36-1.06.36-1.35 0-.23-.05-.71-.35-1.35"/></svg>