<svg xmlns="http://www.w3.org/2000/svg" viewBox="0 0 100 100"><path fill="#333" d="M50 27.7c-19.33 0-35 9.98-35 22.3s15.67 22.3 35 22.3S85 62.32 85 50 69.33 27.7 50 27.7zM24.07 41.17c.96 4.03 7.97 7.38 17.45 8.65v.57c0 9.56 2.75 17.57 6.46 19.75-15.38-.74-27.51-9.22-27.51-19.58-.01-3.4 1.3-6.6 3.6-9.39zM45 50.18c3.22.25 6.79.25 10.01 0-.72 16.77-9.3 16.77-10.01 0zm13.48-.36c9.7-1.3 16.8-4.77 17.51-8.92 2.44 2.85 3.84 6.15 3.84 9.66 0 10.43-12.3 18.96-27.82 19.59 3.78-2.06 6.65-10.94 6.47-20.33zm-5.45-18.43c18.23.81 24.8 9.72 5.07 12.95-.77-5.95-2.65-10.74-5.07-12.95zm1.76 13.33c-3.19.26-6.39.26-9.58 0 1.51-12.86 8.08-12.85 9.58 0zm-12.89-.38c-14.07-2.15-16.28-8.37-4.03-11.66 2.61-.67 5.72-1.12 9.1-1.29-2.42 2.21-4.3 7-5.07 12.95z"/></svg>