<svg xmlns="http://www.w3.org/2000/svg" viewBox="0 0 100 100"><path fill="#333" d="M50 76.46c-14.46 0-26.36-12-26.36-26.46 0-3 .54-5.89 1.5-8.68l15.43 30c.38 1 1.55 1.01 1.93 0l7.18-15.96c.11-.21.21-.32.32-.32.21 0 .21.21.32.32l7.29 15.96c.37 1 1.55 1.01 1.93 0l15.43-30c1 2.78 1.51 5.72 1.5 8.68C76.36 64.46 64.46 76.46 50 76.46zm0-33.32c-.21 0-.21-.21-.32-.32l-8.25-17.78c2.75-.99 5.65-1.5 8.57-1.5 3 0 5.89.53 8.57 1.5l-8.25 17.78c-.11.11-.11.32-.32.32zm-8.68 19.29c-.21 0-.21-.22-.32-.32L27.5 36.18c2.36-3.86 5.79-7.07 9.75-9.32l9.54 20.57c.21.43.43.53.75.53h4.93c.32 0 .54-.11.75-.53l9.43-20.57c3.96 2.25 7.39 5.46 9.75 9.32L59 62.11c-.11.21-.21.32-.32.32-.22 0-.22-.22-.32-.32l-5.14-11.36c-.21-.43-.43-.54-.75-.54h-4.93c-.32 0-.54.11-.75.54l-5.14 11.36c-.11.1-.11.32-.33.32zM50 80c16.61 0 30-13.39 30-30S66.61 20 50 20 20 33.39 20 50s13.39 30 30 30z"/></svg>